<?xml version="1.0" encoding="utf-8" standalone="no"?>
<!DOCTYPE svg PUBLIC "-//W3C//DTD SVG 1.1//EN"
  "http://www.w3.org/Graphics/SVG/1.1/DTD/svg11.dtd">
<svg xmlns:xlink="http://www.w3.org/1999/xlink" width="429.12pt" height="285.12pt" viewBox="0 0 429.12 285.12" xmlns="http://www.w3.org/2000/svg" version="1.1">
 <metadata>
  <rdf:RDF xmlns:dc="http://purl.org/dc/elements/1.1/" xmlns:cc="http://creativecommons.org/ns#" xmlns:rdf="http://www.w3.org/1999/02/22-rdf-syntax-ns#">
   <cc:Work>
    <dc:type rdf:resource="http://purl.org/dc/dcmitype/StillImage"/>
    <dc:date>2025-03-07T17:03:09.082641</dc:date>
    <dc:format>image/svg+xml</dc:format>
    <dc:creator>
     <cc:Agent>
      <dc:title>Matplotlib v3.10.1, https://matplotlib.org/</dc:title>
     </cc:Agent>
    </dc:creator>
   </cc:Work>
  </rdf:RDF>
 </metadata>
 <defs>
  <style type="text/css">*{stroke-linejoin: round; stroke-linecap: butt}</style>
 </defs>
 <g id="figure_1">
  <g id="patch_1">
   <path d="M 0 285.12 
L 429.12 285.12 
L 429.12 0 
L 0 0 
z
" style="fill: #ffffff"/>
  </g>
  <g id="axes_1">
   <g id="patch_2">
    <path d="M 35.801875 117.190625 
L 421.92 117.190625 
L 421.92 7.2 
L 35.801875 7.2 
z
" style="fill: #ffffff"/>
   </g>
   <g id="PathCollection_1">
    <path d="M 53.352699 67.405393 
C 53.866262 67.405393 54.358861 67.201352 54.722005 66.838208 
C 55.08515 66.475064 55.289191 65.982465 55.289191 65.468902 
C 55.289191 64.955338 55.08515 64.46274 54.722005 64.099595 
C 54.358861 63.736451 53.866262 63.53241 53.352699 63.53241 
C 52.839135 63.53241 52.346537 63.736451 51.983392 64.099595 
C 51.620248 64.46274 51.416207 64.955338 51.416207 65.468902 
C 51.416207 65.982465 51.620248 66.475064 51.983392 66.838208 
C 52.346537 67.201352 52.839135 67.405393 53.352699 67.405393 
z
" clip-path="url(#p907b2bcc63)" style="fill: #1f77b4; fill-opacity: 0.8"/>
    <path d="M 71.82725 105.480518 
C 72.340814 105.480518 72.833412 105.276477 73.196557 104.913333 
C 73.559701 104.550188 73.763742 104.05759 73.763742 103.544026 
C 73.763742 103.030463 73.559701 102.537864 73.196557 102.17472 
C 72.833412 101.811576 72.340814 101.607535 71.82725 101.607535 
C 71.313687 101.607535 70.821088 101.811576 70.457944 102.17472 
C 70.0948 102.537864 69.890759 103.030463 69.890759 103.544026 
C 69.890759 104.05759 70.0948 104.550188 70.457944 104.913333 
C 70.821088 105.276477 71.313687 105.480518 71.82725 105.480518 
z
" clip-path="url(#p907b2bcc63)" style="fill: #1f77b4; fill-opacity: 0.8"/>
    <path d="M 90.301802 109.172446 
C 90.815365 109.172446 91.307964 108.968405 91.671108 108.605261 
C 92.034252 108.242117 92.238293 107.749518 92.238293 107.235955 
C 92.238293 106.722391 92.034252 106.229793 91.671108 105.866648 
C 91.307964 105.503504 90.815365 105.299463 90.301802 105.299463 
C 89.788238 105.299463 89.29564 105.503504 88.932495 105.866648 
C 88.569351 106.229793 88.36531 106.722391 88.36531 107.235955 
C 88.36531 107.749518 88.569351 108.242117 88.932495 108.605261 
C 89.29564 108.968405 89.788238 109.172446 90.301802 109.172446 
z
" clip-path="url(#p907b2bcc63)" style="fill: #1f77b4; fill-opacity: 0.8"/>
    <path d="M 108.776353 110.654932 
C 109.289917 110.654932 109.782515 110.450891 110.14566 110.087746 
C 110.508804 109.724602 110.712845 109.232004 110.712845 108.71844 
C 110.712845 108.204876 110.508804 107.712278 110.14566 107.349134 
C 109.782515 106.985989 109.289917 106.781948 108.776353 106.781948 
C 108.26279 106.781948 107.770191 106.985989 107.407047 107.349134 
C 107.043902 107.712278 106.839861 108.204876 106.839861 108.71844 
C 106.839861 109.232004 107.043902 109.724602 107.407047 110.087746 
C 107.770191 110.450891 108.26279 110.654932 108.776353 110.654932 
z
" clip-path="url(#p907b2bcc63)" style="fill: #1f77b4; fill-opacity: 0.8"/>
    <path d="M 127.250905 111.648681 
C 127.764468 111.648681 128.257067 111.44464 128.620211 111.081495 
C 128.983355 110.718351 129.187396 110.225753 129.187396 109.712189 
C 129.187396 109.198625 128.983355 108.706027 128.620211 108.342883 
C 128.257067 107.979738 127.764468 107.775697 127.250905 107.775697 
C 126.737341 107.775697 126.244743 107.979738 125.881598 108.342883 
C 125.518454 108.706027 125.314413 109.198625 125.314413 109.712189 
C 125.314413 110.225753 125.518454 110.718351 125.881598 111.081495 
C 126.244743 111.44464 126.737341 111.648681 127.250905 111.648681 
z
" clip-path="url(#p907b2bcc63)" style="fill: #1f77b4; fill-opacity: 0.8"/>
    <path d="M 145.725456 112.319386 
C 146.23902 112.319386 146.731618 112.115345 147.094762 111.7522 
C 147.457907 111.389056 147.661948 110.896458 147.661948 110.382894 
C 147.661948 109.869331 147.457907 109.376732 147.094762 109.013588 
C 146.731618 108.650443 146.23902 108.446402 145.725456 108.446402 
C 145.211892 108.446402 144.719294 108.650443 144.35615 109.013588 
C 143.993005 109.376732 143.788964 109.869331 143.788964 110.382894 
C 143.788964 110.896458 143.993005 111.389056 144.35615 111.7522 
C 144.719294 112.115345 145.211892 112.319386 145.725456 112.319386 
z
" clip-path="url(#p907b2bcc63)" style="fill: #1f77b4; fill-opacity: 0.8"/>
    <path d="M 164.200007 112.73309 
C 164.713571 112.73309 165.20617 112.529049 165.569314 112.165905 
C 165.932458 111.802761 166.136499 111.310162 166.136499 110.796599 
C 166.136499 110.283035 165.932458 109.790437 165.569314 109.427292 
C 165.20617 109.064148 164.713571 108.860107 164.200007 108.860107 
C 163.686444 108.860107 163.193845 109.064148 162.830701 109.427292 
C 162.467557 109.790437 162.263516 110.283035 162.263516 110.796599 
C 162.263516 111.310162 162.467557 111.802761 162.830701 112.165905 
C 163.193845 112.529049 163.686444 112.73309 164.200007 112.73309 
z
" clip-path="url(#p907b2bcc63)" style="fill: #1f77b4; fill-opacity: 0.8"/>
    <path d="M 182.674559 112.956589 
C 183.188123 112.956589 183.680721 112.752548 184.043865 112.389404 
C 184.40701 112.02626 184.611051 111.533661 184.611051 111.020098 
C 184.611051 110.506534 184.40701 110.013936 184.043865 109.650791 
C 183.680721 109.287647 183.188123 109.083606 182.674559 109.083606 
C 182.160995 109.083606 181.668397 109.287647 181.305253 109.650791 
C 180.942108 110.013936 180.738067 110.506534 180.738067 111.020098 
C 180.738067 111.533661 180.942108 112.02626 181.305253 112.389404 
C 181.668397 112.752548 182.160995 112.956589 182.674559 112.956589 
z
" clip-path="url(#p907b2bcc63)" style="fill: #1f77b4; fill-opacity: 0.8"/>
    <path d="M 201.14911 113.138506 
C 201.662674 113.138506 202.155272 112.934465 202.518417 112.57132 
C 202.881561 112.208176 203.085602 111.715578 203.085602 111.202014 
C 203.085602 110.68845 202.881561 110.195852 202.518417 109.832708 
C 202.155272 109.469563 201.662674 109.265522 201.14911 109.265522 
C 200.635547 109.265522 200.142948 109.469563 199.779804 109.832708 
C 199.41666 110.195852 199.212619 110.68845 199.212619 111.202014 
C 199.212619 111.715578 199.41666 112.208176 199.779804 112.57132 
C 200.142948 112.934465 200.635547 113.138506 201.14911 113.138506 
z
" clip-path="url(#p907b2bcc63)" style="fill: #1f77b4; fill-opacity: 0.8"/>
    <path d="M 219.623662 113.247973 
C 220.137225 113.247973 220.629824 113.043932 220.992968 112.680787 
C 221.356112 112.317643 221.560153 111.825045 221.560153 111.311481 
C 221.560153 110.797917 221.356112 110.305319 220.992968 109.942175 
C 220.629824 109.57903 220.137225 109.374989 219.623662 109.374989 
C 219.110098 109.374989 218.6175 109.57903 218.254355 109.942175 
C 217.891211 110.305319 217.68717 110.797917 217.68717 111.311481 
C 217.68717 111.825045 217.891211 112.317643 218.254355 112.680787 
C 218.6175 113.043932 219.110098 113.247973 219.623662 113.247973 
z
" clip-path="url(#p907b2bcc63)" style="fill: #1f77b4; fill-opacity: 0.8"/>
    <path d="M 238.098213 113.073628 
C 238.611777 113.073628 239.104375 112.869587 239.46752 112.506443 
C 239.830664 112.143299 240.034705 111.6507 240.034705 111.137136 
C 240.034705 110.623573 239.830664 110.130974 239.46752 109.76783 
C 239.104375 109.404686 238.611777 109.200645 238.098213 109.200645 
C 237.58465 109.200645 237.092051 109.404686 236.728907 109.76783 
C 236.365763 110.130974 236.161722 110.623573 236.161722 111.137136 
C 236.161722 111.6507 236.365763 112.143299 236.728907 112.506443 
C 237.092051 112.869587 237.58465 113.073628 238.098213 113.073628 
z
" clip-path="url(#p907b2bcc63)" style="fill: #1f77b4; fill-opacity: 0.8"/>
    <path d="M 256.572765 113.439915 
C 257.086328 113.439915 257.578927 113.235874 257.942071 112.87273 
C 258.305215 112.509586 258.509256 112.016987 258.509256 111.503424 
C 258.509256 110.98986 258.305215 110.497262 257.942071 110.134117 
C 257.578927 109.770973 257.086328 109.566932 256.572765 109.566932 
C 256.059201 109.566932 255.566603 109.770973 255.203458 110.134117 
C 254.840314 110.497262 254.636273 110.98986 254.636273 111.503424 
C 254.636273 112.016987 254.840314 112.509586 255.203458 112.87273 
C 255.566603 113.235874 256.059201 113.439915 256.572765 113.439915 
z
" clip-path="url(#p907b2bcc63)" style="fill: #1f77b4; fill-opacity: 0.8"/>
    <path d="M 275.047316 113.505354 
C 275.56088 113.505354 276.053478 113.301313 276.416622 112.938169 
C 276.779767 112.575025 276.983808 112.082426 276.983808 111.568863 
C 276.983808 111.055299 276.779767 110.5627 276.416622 110.199556 
C 276.053478 109.836412 275.56088 109.632371 275.047316 109.632371 
C 274.533752 109.632371 274.041154 109.836412 273.67801 110.199556 
C 273.314865 110.5627 273.110824 111.055299 273.110824 111.568863 
C 273.110824 112.082426 273.314865 112.575025 273.67801 112.938169 
C 274.041154 113.301313 274.533752 113.505354 275.047316 113.505354 
z
" clip-path="url(#p907b2bcc63)" style="fill: #1f77b4; fill-opacity: 0.8"/>
    <path d="M 293.521868 113.580487 
C 294.035431 113.580487 294.52803 113.376446 294.891174 113.013302 
C 295.254318 112.650157 295.458359 112.157559 295.458359 111.643995 
C 295.458359 111.130432 295.254318 110.637833 294.891174 110.274689 
C 294.52803 109.911545 294.035431 109.707504 293.521868 109.707504 
C 293.008304 109.707504 292.515705 109.911545 292.152561 110.274689 
C 291.789417 110.637833 291.585376 111.130432 291.585376 111.643995 
C 291.585376 112.157559 291.789417 112.650157 292.152561 113.013302 
C 292.515705 113.376446 293.008304 113.580487 293.521868 113.580487 
z
" clip-path="url(#p907b2bcc63)" style="fill: #1f77b4; fill-opacity: 0.8"/>
    <path d="M 311.996419 113.645084 
C 312.509983 113.645084 313.002581 113.441043 313.365725 113.077899 
C 313.72887 112.714754 313.932911 112.222156 313.932911 111.708592 
C 313.932911 111.195029 313.72887 110.70243 313.365725 110.339286 
C 313.002581 109.976142 312.509983 109.772101 311.996419 109.772101 
C 311.482855 109.772101 310.990257 109.976142 310.627113 110.339286 
C 310.263968 110.70243 310.059927 111.195029 310.059927 111.708592 
C 310.059927 112.222156 310.263968 112.714754 310.627113 113.077899 
C 310.990257 113.441043 311.482855 113.645084 311.996419 113.645084 
z
" clip-path="url(#p907b2bcc63)" style="fill: #1f77b4; fill-opacity: 0.8"/>
    <path d="M 330.47097 113.719893 
C 330.984534 113.719893 331.477132 113.515852 331.840277 113.152708 
C 332.203421 112.789564 332.407462 112.296965 332.407462 111.783402 
C 332.407462 111.269838 332.203421 110.77724 331.840277 110.414095 
C 331.477132 110.050951 330.984534 109.84691 330.47097 109.84691 
C 329.957407 109.84691 329.464808 110.050951 329.101664 110.414095 
C 328.73852 110.77724 328.534479 111.269838 328.534479 111.783402 
C 328.534479 112.296965 328.73852 112.789564 329.101664 113.152708 
C 329.464808 113.515852 329.957407 113.719893 330.47097 113.719893 
z
" clip-path="url(#p907b2bcc63)" style="fill: #1f77b4; fill-opacity: 0.8"/>
    <path d="M 348.945522 113.810975 
C 349.459085 113.810975 349.951684 113.606934 350.314828 113.243789 
C 350.677973 112.880645 350.882014 112.388047 350.882014 111.874483 
C 350.882014 111.360919 350.677973 110.868321 350.314828 110.505177 
C 349.951684 110.142032 349.459085 109.937991 348.945522 109.937991 
C 348.431958 109.937991 347.93936 110.142032 347.576215 110.505177 
C 347.213071 110.868321 347.00903 111.360919 347.00903 111.874483 
C 347.00903 112.388047 347.213071 112.880645 347.576215 113.243789 
C 347.93936 113.606934 348.431958 113.810975 348.945522 113.810975 
z
" clip-path="url(#p907b2bcc63)" style="fill: #1f77b4; fill-opacity: 0.8"/>
    <path d="M 367.420073 113.93794 
C 367.933637 113.93794 368.426235 113.733899 368.78938 113.370755 
C 369.152524 113.007611 369.356565 112.515012 369.356565 112.001448 
C 369.356565 111.487885 369.152524 110.995286 368.78938 110.632142 
C 368.426235 110.268998 367.933637 110.064957 367.420073 110.064957 
C 366.90651 110.064957 366.413911 110.268998 366.050767 110.632142 
C 365.687623 110.995286 365.483582 111.487885 365.483582 112.001448 
C 365.483582 112.515012 365.687623 113.007611 366.050767 113.370755 
C 366.413911 113.733899 366.90651 113.93794 367.420073 113.93794 
z
" clip-path="url(#p907b2bcc63)" style="fill: #1f77b4; fill-opacity: 0.8"/>
    <path d="M 385.894625 114.063107 
C 386.408188 114.063107 386.900787 113.859066 387.263931 113.495921 
C 387.627075 113.132777 387.831116 112.640178 387.831116 112.126615 
C 387.831116 111.613051 387.627075 111.120453 387.263931 110.757308 
C 386.900787 110.394164 386.408188 110.190123 385.894625 110.190123 
C 385.381061 110.190123 384.888463 110.394164 384.525318 110.757308 
C 384.162174 111.120453 383.958133 111.613051 383.958133 112.126615 
C 383.958133 112.640178 384.162174 113.132777 384.525318 113.495921 
C 384.888463 113.859066 385.381061 114.063107 385.894625 114.063107 
z
" clip-path="url(#p907b2bcc63)" style="fill: #1f77b4; fill-opacity: 0.8"/>
    <path d="M 404.369176 114.127543 
C 404.88274 114.127543 405.375338 113.923502 405.738483 113.560358 
C 406.101627 113.197213 406.305668 112.704615 406.305668 112.191051 
C 406.305668 111.677488 406.101627 111.184889 405.738483 110.821745 
C 405.375338 110.4586 404.88274 110.254559 404.369176 110.254559 
C 403.855613 110.254559 403.363014 110.4586 402.99987 110.821745 
C 402.636725 111.184889 402.432684 111.677488 402.432684 112.191051 
C 402.432684 112.704615 402.636725 113.197213 402.99987 113.560358 
C 403.363014 113.923502 403.855613 114.127543 404.369176 114.127543 
z
" clip-path="url(#p907b2bcc63)" style="fill: #1f77b4; fill-opacity: 0.8"/>
    <path d="M 70.859004 108.83528 
L 71.82725 107.867035 
L 72.795496 108.83528 
L 73.763742 107.867035 
L 72.795496 106.898789 
L 73.763742 105.930543 
L 72.795496 104.962297 
L 71.82725 105.930543 
L 70.859004 104.962297 
L 69.890759 105.930543 
L 70.859004 106.898789 
L 69.890759 107.867035 
z
" clip-path="url(#p907b2bcc63)" style="fill: #ff7f0e; fill-opacity: 0.8"/>
    <path d="M 107.808107 111.377174 
L 108.776353 110.408928 
L 109.744599 111.377174 
L 110.712845 110.408928 
L 109.744599 109.440682 
L 110.712845 108.472436 
L 109.744599 107.504191 
L 108.776353 108.472436 
L 107.808107 107.504191 
L 106.839861 108.472436 
L 107.808107 109.440682 
L 106.839861 110.408928 
z
" clip-path="url(#p907b2bcc63)" style="fill: #ff7f0e; fill-opacity: 0.8"/>
    <path d="M 144.75721 112.447157 
L 145.725456 111.478911 
L 146.693702 112.447157 
L 147.661948 111.478911 
L 146.693702 110.510665 
L 147.661948 109.54242 
L 146.693702 108.574174 
L 145.725456 109.54242 
L 144.75721 108.574174 
L 143.788964 109.54242 
L 144.75721 110.510665 
L 143.788964 111.478911 
z
" clip-path="url(#p907b2bcc63)" style="fill: #ff7f0e; fill-opacity: 0.8"/>
    <path d="M 181.706313 112.990739 
L 182.674559 112.022493 
L 183.642805 112.990739 
L 184.611051 112.022493 
L 183.642805 111.054247 
L 184.611051 110.086001 
L 183.642805 109.117755 
L 182.674559 110.086001 
L 181.706313 109.117755 
L 180.738067 110.086001 
L 181.706313 111.054247 
L 180.738067 112.022493 
z
" clip-path="url(#p907b2bcc63)" style="fill: #ff7f0e; fill-opacity: 0.8"/>
    <path d="M 218.655416 113.214674 
L 219.623662 112.246428 
L 220.591908 113.214674 
L 221.560153 112.246428 
L 220.591908 111.278182 
L 221.560153 110.309937 
L 220.591908 109.341691 
L 219.623662 110.309937 
L 218.655416 109.341691 
L 217.68717 110.309937 
L 218.655416 111.278182 
L 217.68717 112.246428 
z
" clip-path="url(#p907b2bcc63)" style="fill: #ff7f0e; fill-opacity: 0.8"/>
    <path d="M 255.604519 113.285789 
L 256.572765 112.317543 
L 257.54101 113.285789 
L 258.509256 112.317543 
L 257.54101 111.349297 
L 258.509256 110.381051 
L 257.54101 109.412806 
L 256.572765 110.381051 
L 255.604519 109.412806 
L 254.636273 110.381051 
L 255.604519 111.349297 
L 254.636273 112.317543 
z
" clip-path="url(#p907b2bcc63)" style="fill: #ff7f0e; fill-opacity: 0.8"/>
    <path d="M 292.553622 113.396737 
L 293.521868 112.428491 
L 294.490113 113.396737 
L 295.458359 112.428491 
L 294.490113 111.460246 
L 295.458359 110.492 
L 294.490113 109.523754 
L 293.521868 110.492 
L 292.553622 109.523754 
L 291.585376 110.492 
L 292.553622 111.460246 
L 291.585376 112.428491 
z
" clip-path="url(#p907b2bcc63)" style="fill: #ff7f0e; fill-opacity: 0.8"/>
    <path d="M 329.502725 113.395733 
L 330.47097 112.427487 
L 331.439216 113.395733 
L 332.407462 112.427487 
L 331.439216 111.459241 
L 332.407462 110.490996 
L 331.439216 109.52275 
L 330.47097 110.490996 
L 329.502725 109.52275 
L 328.534479 110.490996 
L 329.502725 111.459241 
L 328.534479 112.427487 
z
" clip-path="url(#p907b2bcc63)" style="fill: #ff7f0e; fill-opacity: 0.8"/>
    <path d="M 366.451827 113.241936 
L 367.420073 112.27369 
L 368.388319 113.241936 
L 369.356565 112.27369 
L 368.388319 111.305445 
L 369.356565 110.337199 
L 368.388319 109.368953 
L 367.420073 110.337199 
L 366.451827 109.368953 
L 365.483582 110.337199 
L 366.451827 111.305445 
L 365.483582 112.27369 
z
" clip-path="url(#p907b2bcc63)" style="fill: #ff7f0e; fill-opacity: 0.8"/>
    <path d="M 403.40093 113.124253 
L 404.369176 112.156007 
L 405.337422 113.124253 
L 406.305668 112.156007 
L 405.337422 111.187762 
L 406.305668 110.219516 
L 405.337422 109.25127 
L 404.369176 110.219516 
L 403.40093 109.25127 
L 402.432684 110.219516 
L 403.40093 111.187762 
L 402.432684 112.156007 
z
" clip-path="url(#p907b2bcc63)" style="fill: #ff7f0e; fill-opacity: 0.8"/>
    <path d="M 70.457944 49.038166 
L 70.457944 51.776778 
L 73.196557 51.776778 
L 73.196557 49.038166 
z
" clip-path="url(#p907b2bcc63)" style="fill: #2ca02c; fill-opacity: 0.8"/>
    <path d="M 107.407047 87.078319 
L 107.407047 89.816932 
L 110.14566 89.816932 
L 110.14566 87.078319 
z
" clip-path="url(#p907b2bcc63)" style="fill: #2ca02c; fill-opacity: 0.8"/>
    <path d="M 144.35615 93.695334 
L 144.35615 96.433947 
L 147.094762 96.433947 
L 147.094762 93.695334 
z
" clip-path="url(#p907b2bcc63)" style="fill: #2ca02c; fill-opacity: 0.8"/>
    <path d="M 181.305253 97.589844 
L 181.305253 100.328457 
L 184.043865 100.328457 
L 184.043865 97.589844 
z
" clip-path="url(#p907b2bcc63)" style="fill: #2ca02c; fill-opacity: 0.8"/>
    <path d="M 218.254355 95.49158 
L 218.254355 98.230193 
L 220.992968 98.230193 
L 220.992968 95.49158 
z
" clip-path="url(#p907b2bcc63)" style="fill: #2ca02c; fill-opacity: 0.8"/>
    <path d="M 255.203458 97.918656 
L 255.203458 100.657269 
L 257.942071 100.657269 
L 257.942071 97.918656 
z
" clip-path="url(#p907b2bcc63)" style="fill: #2ca02c; fill-opacity: 0.8"/>
    <path d="M 292.152561 99.931986 
L 292.152561 102.670598 
L 294.891174 102.670598 
L 294.891174 99.931986 
z
" clip-path="url(#p907b2bcc63)" style="fill: #2ca02c; fill-opacity: 0.8"/>
    <path d="M 329.101664 96.426484 
L 329.101664 99.165097 
L 331.840277 99.165097 
L 331.840277 96.426484 
z
" clip-path="url(#p907b2bcc63)" style="fill: #2ca02c; fill-opacity: 0.8"/>
    <path d="M 366.050767 89.394428 
L 366.050767 92.133041 
L 368.78938 92.133041 
L 368.78938 89.394428 
z
" clip-path="url(#p907b2bcc63)" style="fill: #2ca02c; fill-opacity: 0.8"/>
    <path d="M 402.99987 86.87146 
L 402.99987 89.610073 
L 405.738483 89.610073 
L 405.738483 86.87146 
z
" clip-path="url(#p907b2bcc63)" style="fill: #2ca02c; fill-opacity: 0.8"/>
    <path d="M 71.181753 40.496011 
L 72.472748 40.496011 
L 72.472748 39.205016 
L 73.763742 39.205016 
L 73.763742 37.914022 
L 72.472748 37.914022 
L 72.472748 36.623027 
L 71.181753 36.623027 
L 71.181753 37.914022 
L 69.890759 37.914022 
L 69.890759 39.205016 
L 71.181753 39.205016 
z
" clip-path="url(#p907b2bcc63)" style="fill: #d62728; fill-opacity: 0.8"/>
    <path d="M 108.130856 14.136066 
L 109.42185 14.136066 
L 109.42185 12.845071 
L 110.712845 12.845071 
L 110.712845 11.554077 
L 109.42185 11.554077 
L 109.42185 10.263082 
L 108.130856 10.263082 
L 108.130856 11.554077 
L 106.839861 11.554077 
L 106.839861 12.845071 
L 108.130856 12.845071 
z
" clip-path="url(#p907b2bcc63)" style="fill: #d62728; fill-opacity: 0.8"/>
    <path d="M 145.079959 50.016644 
L 146.370953 50.016644 
L 146.370953 48.725649 
L 147.661948 48.725649 
L 147.661948 47.434655 
L 146.370953 47.434655 
L 146.370953 46.14366 
L 145.079959 46.14366 
L 145.079959 47.434655 
L 143.788964 47.434655 
L 143.788964 48.725649 
L 145.079959 48.725649 
z
" clip-path="url(#p907b2bcc63)" style="fill: #d62728; fill-opacity: 0.8"/>
    <path d="M 182.029062 60.017391 
L 183.320056 60.017391 
L 183.320056 58.726397 
L 184.611051 58.726397 
L 184.611051 57.435402 
L 183.320056 57.435402 
L 183.320056 56.144408 
L 182.029062 56.144408 
L 182.029062 57.435402 
L 180.738067 57.435402 
L 180.738067 58.726397 
L 182.029062 58.726397 
z
" clip-path="url(#p907b2bcc63)" style="fill: #d62728; fill-opacity: 0.8"/>
    <path d="M 218.978165 45.095697 
L 220.269159 45.095697 
L 220.269159 43.804702 
L 221.560153 43.804702 
L 221.560153 42.513708 
L 220.269159 42.513708 
L 220.269159 41.222713 
L 218.978165 41.222713 
L 218.978165 42.513708 
L 217.68717 42.513708 
L 217.68717 43.804702 
L 218.978165 43.804702 
z
" clip-path="url(#p907b2bcc63)" style="fill: #d62728; fill-opacity: 0.8"/>
    <path d="M 255.927267 64.503487 
L 257.218262 64.503487 
L 257.218262 63.212492 
L 258.509256 63.212492 
L 258.509256 61.921498 
L 257.218262 61.921498 
L 257.218262 60.630503 
L 255.927267 60.630503 
L 255.927267 61.921498 
L 254.636273 61.921498 
L 254.636273 63.212492 
L 255.927267 63.212492 
z
" clip-path="url(#p907b2bcc63)" style="fill: #d62728; fill-opacity: 0.8"/>
    <path d="M 292.87637 57.012877 
L 294.167365 57.012877 
L 294.167365 55.721883 
L 295.458359 55.721883 
L 295.458359 54.430888 
L 294.167365 54.430888 
L 294.167365 53.139894 
L 292.87637 53.139894 
L 292.87637 54.430888 
L 291.585376 54.430888 
L 291.585376 55.721883 
L 292.87637 55.721883 
z
" clip-path="url(#p907b2bcc63)" style="fill: #d62728; fill-opacity: 0.8"/>
    <path d="M 329.825473 54.922502 
L 331.116468 54.922502 
L 331.116468 53.631508 
L 332.407462 53.631508 
L 332.407462 52.340513 
L 331.116468 52.340513 
L 331.116468 51.049519 
L 329.825473 51.049519 
L 329.825473 52.340513 
L 328.534479 52.340513 
L 328.534479 53.631508 
L 329.825473 53.631508 
z
" clip-path="url(#p907b2bcc63)" style="fill: #d62728; fill-opacity: 0.8"/>
    <path d="M 366.774576 27.580371 
L 368.06557 27.580371 
L 368.06557 26.289377 
L 369.356565 26.289377 
L 369.356565 24.998383 
L 368.06557 24.998383 
L 368.06557 23.707388 
L 366.774576 23.707388 
L 366.774576 24.998383 
L 365.483582 24.998383 
L 365.483582 26.289377 
L 366.774576 26.289377 
z
" clip-path="url(#p907b2bcc63)" style="fill: #d62728; fill-opacity: 0.8"/>
    <path d="M 403.723679 21.77448 
L 405.014673 21.77448 
L 405.014673 20.483486 
L 406.305668 20.483486 
L 406.305668 19.192491 
L 405.014673 19.192491 
L 405.014673 17.901497 
L 403.723679 17.901497 
L 403.723679 19.192491 
L 402.432684 19.192491 
L 402.432684 20.483486 
L 403.723679 20.483486 
z
" clip-path="url(#p907b2bcc63)" style="fill: #d62728; fill-opacity: 0.8"/>
   </g>
   <g id="FillBetweenPolyCollection_1"/>
   <g id="FillBetweenPolyCollection_2"/>
   <g id="FillBetweenPolyCollection_3"/>
   <g id="FillBetweenPolyCollection_4"/>
   <g id="matplotlib.axis_1">
    <g id="xtick_1">
     <g id="line2d_1">
      <defs>
       <path id="m0d77b42cb9" d="M 0 0 
L 0 -3.5 
" style="stroke: #000000; stroke-width: 0.8"/>
      </defs>
      <g>
       <use xlink:href="#m0d77b42cb9" x="81.064526" y="117.190625" style="stroke: #000000; stroke-width: 0.8"/>
      </g>
     </g>
     <g id="line2d_2">
      <defs>
       <path id="md6b64334d4" d="M 0 0 
L 0 3.5 
" style="stroke: #000000; stroke-width: 0.8"/>
      </defs>
      <g>
       <use xlink:href="#md6b64334d4" x="81.064526" y="7.2" style="stroke: #000000; stroke-width: 0.8"/>
      </g>
     </g>
     <g id="text_1">
      <!-- 2.5 -->
      <g transform="translate(76.293589 125.249687) scale(0.06 -0.06)">
       <defs>
        <path id="DejaVuSans-32" d="M 1228 531 
L 3431 531 
L 3431 0 
L 469 0 
L 469 531 
Q 828 903 1448 1529 
Q 2069 2156 2228 2338 
Q 2531 2678 2651 2914 
Q 2772 3150 2772 3378 
Q 2772 3750 2511 3984 
Q 2250 4219 1831 4219 
Q 1534 4219 1204 4116 
Q 875 4013 500 3803 
L 500 4441 
Q 881 4594 1212 4672 
Q 1544 4750 1819 4750 
Q 2544 4750 2975 4387 
Q 3406 4025 3406 3419 
Q 3406 3131 3298 2873 
Q 3191 2616 2906 2266 
Q 2828 2175 2409 1742 
Q 1991 1309 1228 531 
z
" transform="scale(0.015625)"/>
        <path id="DejaVuSans-2e" d="M 684 794 
L 1344 794 
L 1344 0 
L 684 0 
L 684 794 
z
" transform="scale(0.015625)"/>
        <path id="DejaVuSans-35" d="M 691 4666 
L 3169 4666 
L 3169 4134 
L 1269 4134 
L 1269 2991 
Q 1406 3038 1543 3061 
Q 1681 3084 1819 3084 
Q 2600 3084 3056 2656 
Q 3513 2228 3513 1497 
Q 3513 744 3044 326 
Q 2575 -91 1722 -91 
Q 1428 -91 1123 -41 
Q 819 9 494 109 
L 494 744 
Q 775 591 1075 516 
Q 1375 441 1709 441 
Q 2250 441 2565 725 
Q 2881 1009 2881 1497 
Q 2881 1984 2565 2268 
Q 2250 2553 1709 2553 
Q 1456 2553 1204 2497 
Q 953 2441 691 2322 
L 691 4666 
z
" transform="scale(0.015625)"/>
       </defs>
       <use xlink:href="#DejaVuSans-32"/>
       <use xlink:href="#DejaVuSans-2e" transform="translate(63.623047 0)"/>
       <use xlink:href="#DejaVuSans-35" transform="translate(95.410156 0)"/>
      </g>
     </g>
    </g>
    <g id="xtick_2">
     <g id="line2d_3">
      <g>
       <use xlink:href="#m0d77b42cb9" x="127.250905" y="117.190625" style="stroke: #000000; stroke-width: 0.8"/>
      </g>
     </g>
     <g id="line2d_4">
      <g>
       <use xlink:href="#md6b64334d4" x="127.250905" y="7.2" style="stroke: #000000; stroke-width: 0.8"/>
      </g>
     </g>
     <g id="text_2">
      <!-- 5.0 -->
      <g transform="translate(122.479967 125.249687) scale(0.06 -0.06)">
       <defs>
        <path id="DejaVuSans-30" d="M 2034 4250 
Q 1547 4250 1301 3770 
Q 1056 3291 1056 2328 
Q 1056 1369 1301 889 
Q 1547 409 2034 409 
Q 2525 409 2770 889 
Q 3016 1369 3016 2328 
Q 3016 3291 2770 3770 
Q 2525 4250 2034 4250 
z
M 2034 4750 
Q 2819 4750 3233 4129 
Q 3647 3509 3647 2328 
Q 3647 1150 3233 529 
Q 2819 -91 2034 -91 
Q 1250 -91 836 529 
Q 422 1150 422 2328 
Q 422 3509 836 4129 
Q 1250 4750 2034 4750 
z
" transform="scale(0.015625)"/>
       </defs>
       <use xlink:href="#DejaVuSans-35"/>
       <use xlink:href="#DejaVuSans-2e" transform="translate(63.623047 0)"/>
       <use xlink:href="#DejaVuSans-30" transform="translate(95.410156 0)"/>
      </g>
     </g>
    </g>
    <g id="xtick_3">
     <g id="line2d_5">
      <g>
       <use xlink:href="#m0d77b42cb9" x="173.437283" y="117.190625" style="stroke: #000000; stroke-width: 0.8"/>
      </g>
     </g>
     <g id="line2d_6">
      <g>
       <use xlink:href="#md6b64334d4" x="173.437283" y="7.2" style="stroke: #000000; stroke-width: 0.8"/>
      </g>
     </g>
     <g id="text_3">
      <!-- 7.5 -->
      <g transform="translate(168.666346 125.249687) scale(0.06 -0.06)">
       <defs>
        <path id="DejaVuSans-37" d="M 525 4666 
L 3525 4666 
L 3525 4397 
L 1831 0 
L 1172 0 
L 2766 4134 
L 525 4134 
L 525 4666 
z
" transform="scale(0.015625)"/>
       </defs>
       <use xlink:href="#DejaVuSans-37"/>
       <use xlink:href="#DejaVuSans-2e" transform="translate(63.623047 0)"/>
       <use xlink:href="#DejaVuSans-35" transform="translate(95.410156 0)"/>
      </g>
     </g>
    </g>
    <g id="xtick_4">
     <g id="line2d_7">
      <g>
       <use xlink:href="#m0d77b42cb9" x="219.623662" y="117.190625" style="stroke: #000000; stroke-width: 0.8"/>
      </g>
     </g>
     <g id="line2d_8">
      <g>
       <use xlink:href="#md6b64334d4" x="219.623662" y="7.2" style="stroke: #000000; stroke-width: 0.8"/>
      </g>
     </g>
     <g id="text_4">
      <!-- 10.0 -->
      <g transform="translate(212.943974 125.249687) scale(0.06 -0.06)">
       <defs>
        <path id="DejaVuSans-31" d="M 794 531 
L 1825 531 
L 1825 4091 
L 703 3866 
L 703 4441 
L 1819 4666 
L 2450 4666 
L 2450 531 
L 3481 531 
L 3481 0 
L 794 0 
L 794 531 
z
" transform="scale(0.015625)"/>
       </defs>
       <use xlink:href="#DejaVuSans-31"/>
       <use xlink:href="#DejaVuSans-30" transform="translate(63.623047 0)"/>
       <use xlink:href="#DejaVuSans-2e" transform="translate(127.246094 0)"/>
       <use xlink:href="#DejaVuSans-30" transform="translate(159.033203 0)"/>
      </g>
     </g>
    </g>
    <g id="xtick_5">
     <g id="line2d_9">
      <g>
       <use xlink:href="#m0d77b42cb9" x="265.81004" y="117.190625" style="stroke: #000000; stroke-width: 0.8"/>
      </g>
     </g>
     <g id="line2d_10">
      <g>
       <use xlink:href="#md6b64334d4" x="265.81004" y="7.2" style="stroke: #000000; stroke-width: 0.8"/>
      </g>
     </g>
     <g id="text_5">
      <!-- 12.5 -->
      <g transform="translate(259.130353 125.249687) scale(0.06 -0.06)">
       <use xlink:href="#DejaVuSans-31"/>
       <use xlink:href="#DejaVuSans-32" transform="translate(63.623047 0)"/>
       <use xlink:href="#DejaVuSans-2e" transform="translate(127.246094 0)"/>
       <use xlink:href="#DejaVuSans-35" transform="translate(159.033203 0)"/>
      </g>
     </g>
    </g>
    <g id="xtick_6">
     <g id="line2d_11">
      <g>
       <use xlink:href="#m0d77b42cb9" x="311.996419" y="117.190625" style="stroke: #000000; stroke-width: 0.8"/>
      </g>
     </g>
     <g id="line2d_12">
      <g>
       <use xlink:href="#md6b64334d4" x="311.996419" y="7.2" style="stroke: #000000; stroke-width: 0.8"/>
      </g>
     </g>
     <g id="text_6">
      <!-- 15.0 -->
      <g transform="translate(305.316731 125.249687) scale(0.06 -0.06)">
       <use xlink:href="#DejaVuSans-31"/>
       <use xlink:href="#DejaVuSans-35" transform="translate(63.623047 0)"/>
       <use xlink:href="#DejaVuSans-2e" transform="translate(127.246094 0)"/>
       <use xlink:href="#DejaVuSans-30" transform="translate(159.033203 0)"/>
      </g>
     </g>
    </g>
    <g id="xtick_7">
     <g id="line2d_13">
      <g>
       <use xlink:href="#m0d77b42cb9" x="358.182798" y="117.190625" style="stroke: #000000; stroke-width: 0.8"/>
      </g>
     </g>
     <g id="line2d_14">
      <g>
       <use xlink:href="#md6b64334d4" x="358.182798" y="7.2" style="stroke: #000000; stroke-width: 0.8"/>
      </g>
     </g>
     <g id="text_7">
      <!-- 17.5 -->
      <g transform="translate(351.50311 125.249687) scale(0.06 -0.06)">
       <use xlink:href="#DejaVuSans-31"/>
       <use xlink:href="#DejaVuSans-37" transform="translate(63.623047 0)"/>
       <use xlink:href="#DejaVuSans-2e" transform="translate(127.246094 0)"/>
       <use xlink:href="#DejaVuSans-35" transform="translate(159.033203 0)"/>
      </g>
     </g>
    </g>
    <g id="xtick_8">
     <g id="line2d_15">
      <g>
       <use xlink:href="#m0d77b42cb9" x="404.369176" y="117.190625" style="stroke: #000000; stroke-width: 0.8"/>
      </g>
     </g>
     <g id="line2d_16">
      <g>
       <use xlink:href="#md6b64334d4" x="404.369176" y="7.2" style="stroke: #000000; stroke-width: 0.8"/>
      </g>
     </g>
     <g id="text_8">
      <!-- 20.0 -->
      <g transform="translate(397.689489 125.249687) scale(0.06 -0.06)">
       <use xlink:href="#DejaVuSans-32"/>
       <use xlink:href="#DejaVuSans-30" transform="translate(63.623047 0)"/>
       <use xlink:href="#DejaVuSans-2e" transform="translate(127.246094 0)"/>
       <use xlink:href="#DejaVuSans-30" transform="translate(159.033203 0)"/>
      </g>
     </g>
    </g>
    <g id="text_9">
     <!-- Epoch -->
     <g transform="translate(216.612188 136.57625) scale(0.08 -0.08)">
      <defs>
       <path id="DejaVuSans-45" d="M 628 4666 
L 3578 4666 
L 3578 4134 
L 1259 4134 
L 1259 2753 
L 3481 2753 
L 3481 2222 
L 1259 2222 
L 1259 531 
L 3634 531 
L 3634 0 
L 628 0 
L 628 4666 
z
" transform="scale(0.015625)"/>
       <path id="DejaVuSans-70" d="M 1159 525 
L 1159 -1331 
L 581 -1331 
L 581 3500 
L 1159 3500 
L 1159 2969 
Q 1341 3281 1617 3432 
Q 1894 3584 2278 3584 
Q 2916 3584 3314 3078 
Q 3713 2572 3713 1747 
Q 3713 922 3314 415 
Q 2916 -91 2278 -91 
Q 1894 -91 1617 61 
Q 1341 213 1159 525 
z
M 3116 1747 
Q 3116 2381 2855 2742 
Q 2594 3103 2138 3103 
Q 1681 3103 1420 2742 
Q 1159 2381 1159 1747 
Q 1159 1113 1420 752 
Q 1681 391 2138 391 
Q 2594 391 2855 752 
Q 3116 1113 3116 1747 
z
" transform="scale(0.015625)"/>
       <path id="DejaVuSans-6f" d="M 1959 3097 
Q 1497 3097 1228 2736 
Q 959 2375 959 1747 
Q 959 1119 1226 758 
Q 1494 397 1959 397 
Q 2419 397 2687 759 
Q 2956 1122 2956 1747 
Q 2956 2369 2687 2733 
Q 2419 3097 1959 3097 
z
M 1959 3584 
Q 2709 3584 3137 3096 
Q 3566 2609 3566 1747 
Q 3566 888 3137 398 
Q 2709 -91 1959 -91 
Q 1206 -91 779 398 
Q 353 888 353 1747 
Q 353 2609 779 3096 
Q 1206 3584 1959 3584 
z
" transform="scale(0.015625)"/>
       <path id="DejaVuSans-63" d="M 3122 3366 
L 3122 2828 
Q 2878 2963 2633 3030 
Q 2388 3097 2138 3097 
Q 1578 3097 1268 2742 
Q 959 2388 959 1747 
Q 959 1106 1268 751 
Q 1578 397 2138 397 
Q 2388 397 2633 464 
Q 2878 531 3122 666 
L 3122 134 
Q 2881 22 2623 -34 
Q 2366 -91 2075 -91 
Q 1284 -91 818 406 
Q 353 903 353 1747 
Q 353 2603 823 3093 
Q 1294 3584 2113 3584 
Q 2378 3584 2631 3529 
Q 2884 3475 3122 3366 
z
" transform="scale(0.015625)"/>
       <path id="DejaVuSans-68" d="M 3513 2113 
L 3513 0 
L 2938 0 
L 2938 2094 
Q 2938 2591 2744 2837 
Q 2550 3084 2163 3084 
Q 1697 3084 1428 2787 
Q 1159 2491 1159 1978 
L 1159 0 
L 581 0 
L 581 4863 
L 1159 4863 
L 1159 2956 
Q 1366 3272 1645 3428 
Q 1925 3584 2291 3584 
Q 2894 3584 3203 3211 
Q 3513 2838 3513 2113 
z
" transform="scale(0.015625)"/>
      </defs>
      <use xlink:href="#DejaVuSans-45"/>
      <use xlink:href="#DejaVuSans-70" transform="translate(63.183594 0)"/>
      <use xlink:href="#DejaVuSans-6f" transform="translate(126.660156 0)"/>
      <use xlink:href="#DejaVuSans-63" transform="translate(187.841797 0)"/>
      <use xlink:href="#DejaVuSans-68" transform="translate(242.822266 0)"/>
     </g>
    </g>
   </g>
   <g id="matplotlib.axis_2">
    <g id="ytick_1">
     <g id="line2d_17">
      <defs>
       <path id="mf236ecf876" d="M 0 0 
L 3.5 0 
" style="stroke: #000000; stroke-width: 0.8"/>
      </defs>
      <g>
       <use xlink:href="#mf236ecf876" x="35.801875" y="112.740449" style="stroke: #000000; stroke-width: 0.8"/>
      </g>
     </g>
     <g id="line2d_18">
      <defs>
       <path id="mc7a82f136c" d="M 0 0 
L -3.5 0 
" style="stroke: #000000; stroke-width: 0.8"/>
      </defs>
      <g>
       <use xlink:href="#mc7a82f136c" x="421.92" y="112.740449" style="stroke: #000000; stroke-width: 0.8"/>
      </g>
     </g>
     <g id="text_10">
      <!-- 0.0 -->
      <g transform="translate(22.76 115.01998) scale(0.06 -0.06)">
       <use xlink:href="#DejaVuSans-30"/>
       <use xlink:href="#DejaVuSans-2e" transform="translate(63.623047 0)"/>
       <use xlink:href="#DejaVuSans-30" transform="translate(95.410156 0)"/>
      </g>
     </g>
    </g>
    <g id="ytick_2">
     <g id="line2d_19">
      <g>
       <use xlink:href="#mf236ecf876" x="35.801875" y="93.101491" style="stroke: #000000; stroke-width: 0.8"/>
      </g>
     </g>
     <g id="line2d_20">
      <g>
       <use xlink:href="#mc7a82f136c" x="421.92" y="93.101491" style="stroke: #000000; stroke-width: 0.8"/>
      </g>
     </g>
     <g id="text_11">
      <!-- 0.2 -->
      <g transform="translate(22.76 95.381022) scale(0.06 -0.06)">
       <use xlink:href="#DejaVuSans-30"/>
       <use xlink:href="#DejaVuSans-2e" transform="translate(63.623047 0)"/>
       <use xlink:href="#DejaVuSans-32" transform="translate(95.410156 0)"/>
      </g>
     </g>
    </g>
    <g id="ytick_3">
     <g id="line2d_21">
      <g>
       <use xlink:href="#mf236ecf876" x="35.801875" y="73.462533" style="stroke: #000000; stroke-width: 0.8"/>
      </g>
     </g>
     <g id="line2d_22">
      <g>
       <use xlink:href="#mc7a82f136c" x="421.92" y="73.462533" style="stroke: #000000; stroke-width: 0.8"/>
      </g>
     </g>
     <g id="text_12">
      <!-- 0.4 -->
      <g transform="translate(22.76 75.742064) scale(0.06 -0.06)">
       <defs>
        <path id="DejaVuSans-34" d="M 2419 4116 
L 825 1625 
L 2419 1625 
L 2419 4116 
z
M 2253 4666 
L 3047 4666 
L 3047 1625 
L 3713 1625 
L 3713 1100 
L 3047 1100 
L 3047 0 
L 2419 0 
L 2419 1100 
L 313 1100 
L 313 1709 
L 2253 4666 
z
" transform="scale(0.015625)"/>
       </defs>
       <use xlink:href="#DejaVuSans-30"/>
       <use xlink:href="#DejaVuSans-2e" transform="translate(63.623047 0)"/>
       <use xlink:href="#DejaVuSans-34" transform="translate(95.410156 0)"/>
      </g>
     </g>
    </g>
    <g id="ytick_4">
     <g id="line2d_23">
      <g>
       <use xlink:href="#mf236ecf876" x="35.801875" y="53.823574" style="stroke: #000000; stroke-width: 0.8"/>
      </g>
     </g>
     <g id="line2d_24">
      <g>
       <use xlink:href="#mc7a82f136c" x="421.92" y="53.823574" style="stroke: #000000; stroke-width: 0.8"/>
      </g>
     </g>
     <g id="text_13">
      <!-- 0.6 -->
      <g transform="translate(22.76 56.103106) scale(0.06 -0.06)">
       <defs>
        <path id="DejaVuSans-36" d="M 2113 2584 
Q 1688 2584 1439 2293 
Q 1191 2003 1191 1497 
Q 1191 994 1439 701 
Q 1688 409 2113 409 
Q 2538 409 2786 701 
Q 3034 994 3034 1497 
Q 3034 2003 2786 2293 
Q 2538 2584 2113 2584 
z
M 3366 4563 
L 3366 3988 
Q 3128 4100 2886 4159 
Q 2644 4219 2406 4219 
Q 1781 4219 1451 3797 
Q 1122 3375 1075 2522 
Q 1259 2794 1537 2939 
Q 1816 3084 2150 3084 
Q 2853 3084 3261 2657 
Q 3669 2231 3669 1497 
Q 3669 778 3244 343 
Q 2819 -91 2113 -91 
Q 1303 -91 875 529 
Q 447 1150 447 2328 
Q 447 3434 972 4092 
Q 1497 4750 2381 4750 
Q 2619 4750 2861 4703 
Q 3103 4656 3366 4563 
z
" transform="scale(0.015625)"/>
       </defs>
       <use xlink:href="#DejaVuSans-30"/>
       <use xlink:href="#DejaVuSans-2e" transform="translate(63.623047 0)"/>
       <use xlink:href="#DejaVuSans-36" transform="translate(95.410156 0)"/>
      </g>
     </g>
    </g>
    <g id="ytick_5">
     <g id="line2d_25">
      <g>
       <use xlink:href="#mf236ecf876" x="35.801875" y="34.184616" style="stroke: #000000; stroke-width: 0.8"/>
      </g>
     </g>
     <g id="line2d_26">
      <g>
       <use xlink:href="#mc7a82f136c" x="421.92" y="34.184616" style="stroke: #000000; stroke-width: 0.8"/>
      </g>
     </g>
     <g id="text_14">
      <!-- 0.8 -->
      <g transform="translate(22.76 36.464148) scale(0.06 -0.06)">
       <defs>
        <path id="DejaVuSans-38" d="M 2034 2216 
Q 1584 2216 1326 1975 
Q 1069 1734 1069 1313 
Q 1069 891 1326 650 
Q 1584 409 2034 409 
Q 2484 409 2743 651 
Q 3003 894 3003 1313 
Q 3003 1734 2745 1975 
Q 2488 2216 2034 2216 
z
M 1403 2484 
Q 997 2584 770 2862 
Q 544 3141 544 3541 
Q 544 4100 942 4425 
Q 1341 4750 2034 4750 
Q 2731 4750 3128 4425 
Q 3525 4100 3525 3541 
Q 3525 3141 3298 2862 
Q 3072 2584 2669 2484 
Q 3125 2378 3379 2068 
Q 3634 1759 3634 1313 
Q 3634 634 3220 271 
Q 2806 -91 2034 -91 
Q 1263 -91 848 271 
Q 434 634 434 1313 
Q 434 1759 690 2068 
Q 947 2378 1403 2484 
z
M 1172 3481 
Q 1172 3119 1398 2916 
Q 1625 2713 2034 2713 
Q 2441 2713 2670 2916 
Q 2900 3119 2900 3481 
Q 2900 3844 2670 4047 
Q 2441 4250 2034 4250 
Q 1625 4250 1398 4047 
Q 1172 3844 1172 3481 
z
" transform="scale(0.015625)"/>
       </defs>
       <use xlink:href="#DejaVuSans-30"/>
       <use xlink:href="#DejaVuSans-2e" transform="translate(63.623047 0)"/>
       <use xlink:href="#DejaVuSans-38" transform="translate(95.410156 0)"/>
      </g>
     </g>
    </g>
    <g id="ytick_6">
     <g id="line2d_27">
      <g>
       <use xlink:href="#mf236ecf876" x="35.801875" y="14.545658" style="stroke: #000000; stroke-width: 0.8"/>
      </g>
     </g>
     <g id="line2d_28">
      <g>
       <use xlink:href="#mc7a82f136c" x="421.92" y="14.545658" style="stroke: #000000; stroke-width: 0.8"/>
      </g>
     </g>
     <g id="text_15">
      <!-- 1.0 -->
      <g transform="translate(22.76 16.825189) scale(0.06 -0.06)">
       <use xlink:href="#DejaVuSans-31"/>
       <use xlink:href="#DejaVuSans-2e" transform="translate(63.623047 0)"/>
       <use xlink:href="#DejaVuSans-30" transform="translate(95.410156 0)"/>
      </g>
     </g>
    </g>
    <g id="text_16">
     <!-- Loss -->
     <g transform="translate(17.09625 70.969062) rotate(-90) scale(0.08 -0.08)">
      <defs>
       <path id="DejaVuSans-4c" d="M 628 4666 
L 1259 4666 
L 1259 531 
L 3531 531 
L 3531 0 
L 628 0 
L 628 4666 
z
" transform="scale(0.015625)"/>
       <path id="DejaVuSans-73" d="M 2834 3397 
L 2834 2853 
Q 2591 2978 2328 3040 
Q 2066 3103 1784 3103 
Q 1356 3103 1142 2972 
Q 928 2841 928 2578 
Q 928 2378 1081 2264 
Q 1234 2150 1697 2047 
L 1894 2003 
Q 2506 1872 2764 1633 
Q 3022 1394 3022 966 
Q 3022 478 2636 193 
Q 2250 -91 1575 -91 
Q 1294 -91 989 -36 
Q 684 19 347 128 
L 347 722 
Q 666 556 975 473 
Q 1284 391 1588 391 
Q 1994 391 2212 530 
Q 2431 669 2431 922 
Q 2431 1156 2273 1281 
Q 2116 1406 1581 1522 
L 1381 1569 
Q 847 1681 609 1914 
Q 372 2147 372 2553 
Q 372 3047 722 3315 
Q 1072 3584 1716 3584 
Q 2034 3584 2315 3537 
Q 2597 3491 2834 3397 
z
" transform="scale(0.015625)"/>
      </defs>
      <use xlink:href="#DejaVuSans-4c"/>
      <use xlink:href="#DejaVuSans-6f" transform="translate(53.962891 0)"/>
      <use xlink:href="#DejaVuSans-73" transform="translate(115.144531 0)"/>
      <use xlink:href="#DejaVuSans-73" transform="translate(167.244141 0)"/>
     </g>
    </g>
   </g>
   <g id="line2d_29">
    <path d="M 53.352699 65.468902 
L 71.82725 103.544026 
L 90.301802 107.235955 
L 108.776353 108.71844 
L 127.250905 109.712189 
L 145.725456 110.382894 
L 164.200007 110.796599 
L 182.674559 111.020098 
L 201.14911 111.202014 
L 219.623662 111.311481 
L 238.098213 111.137136 
L 256.572765 111.503424 
L 275.047316 111.568863 
L 293.521868 111.643995 
L 311.996419 111.708592 
L 330.47097 111.783402 
L 348.945522 111.874483 
L 367.420073 112.001448 
L 385.894625 112.126615 
L 404.369176 112.191051 
" clip-path="url(#p907b2bcc63)" style="fill: none; stroke: #1f77b4; stroke-opacity: 0.8; stroke-linecap: square"/>
   </g>
   <g id="line2d_30">
    <path d="M 71.82725 106.898789 
L 108.776353 109.440682 
L 145.725456 110.510665 
L 182.674559 111.054247 
L 219.623662 111.278182 
L 256.572765 111.349297 
L 293.521868 111.460246 
L 330.47097 111.459241 
L 367.420073 111.305445 
L 404.369176 111.187762 
" clip-path="url(#p907b2bcc63)" style="fill: none; stroke-dasharray: 4,1.5; stroke-dashoffset: 0; stroke: #ff7f0e; stroke-opacity: 0.8"/>
   </g>
   <g id="line2d_31">
    <path d="M 71.82725 50.407472 
L 108.776353 88.447625 
L 145.725456 95.06464 
L 182.674559 98.959151 
L 219.623662 96.860887 
L 256.572765 99.287963 
L 293.521868 101.301292 
L 330.47097 97.795791 
L 367.420073 90.763735 
L 404.369176 88.240767 
" clip-path="url(#p907b2bcc63)" style="fill: none; stroke-dasharray: 1,1; stroke-dashoffset: 0; stroke: #2ca02c; stroke-opacity: 0.8"/>
   </g>
   <g id="line2d_32">
    <path d="M 71.82725 38.559519 
L 108.776353 12.199574 
L 145.725456 48.080152 
L 182.674559 58.080899 
L 219.623662 43.159205 
L 256.572765 62.566995 
L 293.521868 55.076385 
L 330.47097 52.986011 
L 367.420073 25.64388 
L 404.369176 19.837988 
" clip-path="url(#p907b2bcc63)" style="fill: none; stroke-dasharray: 3,1.25,1.5,1.25; stroke-dashoffset: 0; stroke: #d62728; stroke-opacity: 0.8"/>
   </g>
   <g id="line2d_33"/>
   <g id="line2d_34"/>
   <g id="line2d_35"/>
   <g id="line2d_36"/>
   <g id="patch_3">
    <path d="M 35.801875 117.190625 
L 35.801875 7.2 
" style="fill: none; stroke: #000000; stroke-width: 0.5; stroke-linejoin: miter; stroke-linecap: square"/>
   </g>
   <g id="patch_4">
    <path d="M 421.92 117.190625 
L 421.92 7.2 
" style="fill: none; stroke: #000000; stroke-width: 0.5; stroke-linejoin: miter; stroke-linecap: square"/>
   </g>
   <g id="patch_5">
    <path d="M 35.801875 117.190625 
L 421.92 117.190625 
" style="fill: none; stroke: #000000; stroke-width: 0.5; stroke-linejoin: miter; stroke-linecap: square"/>
   </g>
   <g id="patch_6">
    <path d="M 35.801875 7.2 
L 421.92 7.2 
" style="fill: none; stroke: #000000; stroke-width: 0.5; stroke-linejoin: miter; stroke-linecap: square"/>
   </g>
   <g id="legend_1">
    <g id="line2d_37">
     <path d="M 363.487969 50.538281 
L 368.487969 50.538281 
L 373.487969 50.538281 
" style="fill: none; stroke: #1f77b4; stroke-opacity: 0.8; stroke-linecap: square"/>
    </g>
    <g id="text_17">
     <!-- train_loss -->
     <g transform="translate(377.487969 52.288281) scale(0.05 -0.05)">
      <defs>
       <path id="DejaVuSans-74" d="M 1172 4494 
L 1172 3500 
L 2356 3500 
L 2356 3053 
L 1172 3053 
L 1172 1153 
Q 1172 725 1289 603 
Q 1406 481 1766 481 
L 2356 481 
L 2356 0 
L 1766 0 
Q 1100 0 847 248 
Q 594 497 594 1153 
L 594 3053 
L 172 3053 
L 172 3500 
L 594 3500 
L 594 4494 
L 1172 4494 
z
" transform="scale(0.015625)"/>
       <path id="DejaVuSans-72" d="M 2631 2963 
Q 2534 3019 2420 3045 
Q 2306 3072 2169 3072 
Q 1681 3072 1420 2755 
Q 1159 2438 1159 1844 
L 1159 0 
L 581 0 
L 581 3500 
L 1159 3500 
L 1159 2956 
Q 1341 3275 1631 3429 
Q 1922 3584 2338 3584 
Q 2397 3584 2469 3576 
Q 2541 3569 2628 3553 
L 2631 2963 
z
" transform="scale(0.015625)"/>
       <path id="DejaVuSans-61" d="M 2194 1759 
Q 1497 1759 1228 1600 
Q 959 1441 959 1056 
Q 959 750 1161 570 
Q 1363 391 1709 391 
Q 2188 391 2477 730 
Q 2766 1069 2766 1631 
L 2766 1759 
L 2194 1759 
z
M 3341 1997 
L 3341 0 
L 2766 0 
L 2766 531 
Q 2569 213 2275 61 
Q 1981 -91 1556 -91 
Q 1019 -91 701 211 
Q 384 513 384 1019 
Q 384 1609 779 1909 
Q 1175 2209 1959 2209 
L 2766 2209 
L 2766 2266 
Q 2766 2663 2505 2880 
Q 2244 3097 1772 3097 
Q 1472 3097 1187 3025 
Q 903 2953 641 2809 
L 641 3341 
Q 956 3463 1253 3523 
Q 1550 3584 1831 3584 
Q 2591 3584 2966 3190 
Q 3341 2797 3341 1997 
z
" transform="scale(0.015625)"/>
       <path id="DejaVuSans-69" d="M 603 3500 
L 1178 3500 
L 1178 0 
L 603 0 
L 603 3500 
z
M 603 4863 
L 1178 4863 
L 1178 4134 
L 603 4134 
L 603 4863 
z
" transform="scale(0.015625)"/>
       <path id="DejaVuSans-6e" d="M 3513 2113 
L 3513 0 
L 2938 0 
L 2938 2094 
Q 2938 2591 2744 2837 
Q 2550 3084 2163 3084 
Q 1697 3084 1428 2787 
Q 1159 2491 1159 1978 
L 1159 0 
L 581 0 
L 581 3500 
L 1159 3500 
L 1159 2956 
Q 1366 3272 1645 3428 
Q 1925 3584 2291 3584 
Q 2894 3584 3203 3211 
Q 3513 2838 3513 2113 
z
" transform="scale(0.015625)"/>
       <path id="DejaVuSans-5f" d="M 3263 -1063 
L 3263 -1509 
L -63 -1509 
L -63 -1063 
L 3263 -1063 
z
" transform="scale(0.015625)"/>
       <path id="DejaVuSans-6c" d="M 603 4863 
L 1178 4863 
L 1178 0 
L 603 0 
L 603 4863 
z
" transform="scale(0.015625)"/>
      </defs>
      <use xlink:href="#DejaVuSans-74"/>
      <use xlink:href="#DejaVuSans-72" transform="translate(39.208984 0)"/>
      <use xlink:href="#DejaVuSans-61" transform="translate(80.322266 0)"/>
      <use xlink:href="#DejaVuSans-69" transform="translate(141.601562 0)"/>
      <use xlink:href="#DejaVuSans-6e" transform="translate(169.384766 0)"/>
      <use xlink:href="#DejaVuSans-5f" transform="translate(232.763672 0)"/>
      <use xlink:href="#DejaVuSans-6c" transform="translate(282.763672 0)"/>
      <use xlink:href="#DejaVuSans-6f" transform="translate(310.546875 0)"/>
      <use xlink:href="#DejaVuSans-73" transform="translate(371.728516 0)"/>
      <use xlink:href="#DejaVuSans-73" transform="translate(423.828125 0)"/>
     </g>
    </g>
    <g id="line2d_38">
     <path d="M 363.487969 58.016406 
L 368.487969 58.016406 
L 373.487969 58.016406 
" style="fill: none; stroke-dasharray: 4,1.5; stroke-dashoffset: 0; stroke: #ff7f0e; stroke-opacity: 0.8"/>
    </g>
    <g id="text_18">
     <!-- valid_loss -->
     <g transform="translate(377.487969 59.766406) scale(0.05 -0.05)">
      <defs>
       <path id="DejaVuSans-76" d="M 191 3500 
L 800 3500 
L 1894 563 
L 2988 3500 
L 3597 3500 
L 2284 0 
L 1503 0 
L 191 3500 
z
" transform="scale(0.015625)"/>
       <path id="DejaVuSans-64" d="M 2906 2969 
L 2906 4863 
L 3481 4863 
L 3481 0 
L 2906 0 
L 2906 525 
Q 2725 213 2448 61 
Q 2172 -91 1784 -91 
Q 1150 -91 751 415 
Q 353 922 353 1747 
Q 353 2572 751 3078 
Q 1150 3584 1784 3584 
Q 2172 3584 2448 3432 
Q 2725 3281 2906 2969 
z
M 947 1747 
Q 947 1113 1208 752 
Q 1469 391 1925 391 
Q 2381 391 2643 752 
Q 2906 1113 2906 1747 
Q 2906 2381 2643 2742 
Q 2381 3103 1925 3103 
Q 1469 3103 1208 2742 
Q 947 2381 947 1747 
z
" transform="scale(0.015625)"/>
      </defs>
      <use xlink:href="#DejaVuSans-76"/>
      <use xlink:href="#DejaVuSans-61" transform="translate(59.179688 0)"/>
      <use xlink:href="#DejaVuSans-6c" transform="translate(120.458984 0)"/>
      <use xlink:href="#DejaVuSans-69" transform="translate(148.242188 0)"/>
      <use xlink:href="#DejaVuSans-64" transform="translate(176.025391 0)"/>
      <use xlink:href="#DejaVuSans-5f" transform="translate(239.501953 0)"/>
      <use xlink:href="#DejaVuSans-6c" transform="translate(289.501953 0)"/>
      <use xlink:href="#DejaVuSans-6f" transform="translate(317.285156 0)"/>
      <use xlink:href="#DejaVuSans-73" transform="translate(378.466797 0)"/>
      <use xlink:href="#DejaVuSans-73" transform="translate(430.566406 0)"/>
     </g>
    </g>
    <g id="line2d_39">
     <path d="M 363.487969 65.494531 
L 368.487969 65.494531 
L 373.487969 65.494531 
" style="fill: none; stroke-dasharray: 1,1; stroke-dashoffset: 0; stroke: #2ca02c; stroke-opacity: 0.8"/>
    </g>
    <g id="text_19">
     <!-- valid_noise_loss -->
     <g transform="translate(377.487969 67.244531) scale(0.05 -0.05)">
      <defs>
       <path id="DejaVuSans-65" d="M 3597 1894 
L 3597 1613 
L 953 1613 
Q 991 1019 1311 708 
Q 1631 397 2203 397 
Q 2534 397 2845 478 
Q 3156 559 3463 722 
L 3463 178 
Q 3153 47 2828 -22 
Q 2503 -91 2169 -91 
Q 1331 -91 842 396 
Q 353 884 353 1716 
Q 353 2575 817 3079 
Q 1281 3584 2069 3584 
Q 2775 3584 3186 3129 
Q 3597 2675 3597 1894 
z
M 3022 2063 
Q 3016 2534 2758 2815 
Q 2500 3097 2075 3097 
Q 1594 3097 1305 2825 
Q 1016 2553 972 2059 
L 3022 2063 
z
" transform="scale(0.015625)"/>
      </defs>
      <use xlink:href="#DejaVuSans-76"/>
      <use xlink:href="#DejaVuSans-61" transform="translate(59.179688 0)"/>
      <use xlink:href="#DejaVuSans-6c" transform="translate(120.458984 0)"/>
      <use xlink:href="#DejaVuSans-69" transform="translate(148.242188 0)"/>
      <use xlink:href="#DejaVuSans-64" transform="translate(176.025391 0)"/>
      <use xlink:href="#DejaVuSans-5f" transform="translate(239.501953 0)"/>
      <use xlink:href="#DejaVuSans-6e" transform="translate(289.501953 0)"/>
      <use xlink:href="#DejaVuSans-6f" transform="translate(352.880859 0)"/>
      <use xlink:href="#DejaVuSans-69" transform="translate(414.0625 0)"/>
      <use xlink:href="#DejaVuSans-73" transform="translate(441.845703 0)"/>
      <use xlink:href="#DejaVuSans-65" transform="translate(493.945312 0)"/>
      <use xlink:href="#DejaVuSans-5f" transform="translate(555.46875 0)"/>
      <use xlink:href="#DejaVuSans-6c" transform="translate(605.46875 0)"/>
      <use xlink:href="#DejaVuSans-6f" transform="translate(633.251953 0)"/>
      <use xlink:href="#DejaVuSans-73" transform="translate(694.433594 0)"/>
      <use xlink:href="#DejaVuSans-73" transform="translate(746.533203 0)"/>
     </g>
    </g>
    <g id="line2d_40">
     <path d="M 363.487969 72.972656 
L 368.487969 72.972656 
L 373.487969 72.972656 
" style="fill: none; stroke-dasharray: 3,1.25,1.5,1.25; stroke-dashoffset: 0; stroke: #d62728; stroke-opacity: 0.8"/>
    </g>
    <g id="text_20">
     <!-- valid_atom_loss -->
     <g transform="translate(377.487969 74.722656) scale(0.05 -0.05)">
      <defs>
       <path id="DejaVuSans-6d" d="M 3328 2828 
Q 3544 3216 3844 3400 
Q 4144 3584 4550 3584 
Q 5097 3584 5394 3201 
Q 5691 2819 5691 2113 
L 5691 0 
L 5113 0 
L 5113 2094 
Q 5113 2597 4934 2840 
Q 4756 3084 4391 3084 
Q 3944 3084 3684 2787 
Q 3425 2491 3425 1978 
L 3425 0 
L 2847 0 
L 2847 2094 
Q 2847 2600 2669 2842 
Q 2491 3084 2119 3084 
Q 1678 3084 1418 2786 
Q 1159 2488 1159 1978 
L 1159 0 
L 581 0 
L 581 3500 
L 1159 3500 
L 1159 2956 
Q 1356 3278 1631 3431 
Q 1906 3584 2284 3584 
Q 2666 3584 2933 3390 
Q 3200 3197 3328 2828 
z
" transform="scale(0.015625)"/>
      </defs>
      <use xlink:href="#DejaVuSans-76"/>
      <use xlink:href="#DejaVuSans-61" transform="translate(59.179688 0)"/>
      <use xlink:href="#DejaVuSans-6c" transform="translate(120.458984 0)"/>
      <use xlink:href="#DejaVuSans-69" transform="translate(148.242188 0)"/>
      <use xlink:href="#DejaVuSans-64" transform="translate(176.025391 0)"/>
      <use xlink:href="#DejaVuSans-5f" transform="translate(239.501953 0)"/>
      <use xlink:href="#DejaVuSans-61" transform="translate(289.501953 0)"/>
      <use xlink:href="#DejaVuSans-74" transform="translate(350.78125 0)"/>
      <use xlink:href="#DejaVuSans-6f" transform="translate(389.990234 0)"/>
      <use xlink:href="#DejaVuSans-6d" transform="translate(451.171875 0)"/>
      <use xlink:href="#DejaVuSans-5f" transform="translate(548.583984 0)"/>
      <use xlink:href="#DejaVuSans-6c" transform="translate(598.583984 0)"/>
      <use xlink:href="#DejaVuSans-6f" transform="translate(626.367188 0)"/>
      <use xlink:href="#DejaVuSans-73" transform="translate(687.548828 0)"/>
      <use xlink:href="#DejaVuSans-73" transform="translate(739.648438 0)"/>
     </g>
    </g>
   </g>
  </g>
  <g id="axes_2">
   <g id="patch_7">
    <path d="M 35.801875 256.870625 
L 421.92 256.870625 
L 421.92 146.88 
L 35.801875 146.88 
z
" style="fill: #ffffff"/>
   </g>
   <g id="PathCollection_2">
    <path d="M 53.352699 228.126647 
C 53.866262 228.126647 54.358861 227.922606 54.722005 227.559461 
C 55.08515 227.196317 55.289191 226.703719 55.289191 226.190155 
C 55.289191 225.676592 55.08515 225.183993 54.722005 224.820849 
C 54.358861 224.457704 53.866262 224.253663 53.352699 224.253663 
C 52.839135 224.253663 52.346537 224.457704 51.983392 224.820849 
C 51.620248 225.183993 51.416207 225.676592 51.416207 226.190155 
C 51.416207 226.703719 51.620248 227.196317 51.983392 227.559461 
C 52.346537 227.922606 52.839135 228.126647 53.352699 228.126647 
z
" clip-path="url(#p6740e18bbc)" style="fill: #1f77b4; fill-opacity: 0.8"/>
    <path d="M 71.82725 166.682541 
C 72.340814 166.682541 72.833412 166.4785 73.196557 166.115356 
C 73.559701 165.752212 73.763742 165.259613 73.763742 164.74605 
C 73.763742 164.232486 73.559701 163.739888 73.196557 163.376743 
C 72.833412 163.013599 72.340814 162.809558 71.82725 162.809558 
C 71.313687 162.809558 70.821088 163.013599 70.457944 163.376743 
C 70.0948 163.739888 69.890759 164.232486 69.890759 164.74605 
C 69.890759 165.259613 70.0948 165.752212 70.457944 166.115356 
C 70.821088 166.4785 71.313687 166.682541 71.82725 166.682541 
z
" clip-path="url(#p6740e18bbc)" style="fill: #1f77b4; fill-opacity: 0.8"/>
    <path d="M 90.301802 160.847187 
C 90.815365 160.847187 91.307964 160.643146 91.671108 160.280002 
C 92.034252 159.916857 92.238293 159.424259 92.238293 158.910695 
C 92.238293 158.397132 92.034252 157.904533 91.671108 157.541389 
C 91.307964 157.178244 90.815365 156.974204 90.301802 156.974204 
C 89.788238 156.974204 89.29564 157.178244 88.932495 157.541389 
C 88.569351 157.904533 88.36531 158.397132 88.36531 158.910695 
C 88.36531 159.424259 88.569351 159.916857 88.932495 160.280002 
C 89.29564 160.643146 89.788238 160.847187 90.301802 160.847187 
z
" clip-path="url(#p6740e18bbc)" style="fill: #1f77b4; fill-opacity: 0.8"/>
    <path d="M 108.776353 158.556691 
C 109.289917 158.556691 109.782515 158.35265 110.14566 157.989505 
C 110.508804 157.626361 110.712845 157.133763 110.712845 156.620199 
C 110.712845 156.106635 110.508804 155.614037 110.14566 155.250893 
C 109.782515 154.887748 109.289917 154.683707 108.776353 154.683707 
C 108.26279 154.683707 107.770191 154.887748 107.407047 155.250893 
C 107.043902 155.614037 106.839861 156.106635 106.839861 156.620199 
C 106.839861 157.133763 107.043902 157.626361 107.407047 157.989505 
C 107.770191 158.35265 108.26279 158.556691 108.776353 158.556691 
z
" clip-path="url(#p6740e18bbc)" style="fill: #1f77b4; fill-opacity: 0.8"/>
    <path d="M 127.250905 157.123798 
C 127.764468 157.123798 128.257067 156.919757 128.620211 156.556612 
C 128.983355 156.193468 129.187396 155.70087 129.187396 155.187306 
C 129.187396 154.673742 128.983355 154.181144 128.620211 153.818 
C 128.257067 153.454855 127.764468 153.250814 127.250905 153.250814 
C 126.737341 153.250814 126.244743 153.454855 125.881598 153.818 
C 125.518454 154.181144 125.314413 154.673742 125.314413 155.187306 
C 125.314413 155.70087 125.518454 156.193468 125.881598 156.556612 
C 126.244743 156.919757 126.737341 157.123798 127.250905 157.123798 
z
" clip-path="url(#p6740e18bbc)" style="fill: #1f77b4; fill-opacity: 0.8"/>
    <path d="M 145.725456 156.137496 
C 146.23902 156.137496 146.731618 155.933455 147.094762 155.570311 
C 147.457907 155.207166 147.661948 154.714568 147.661948 154.201004 
C 147.661948 153.687441 147.457907 153.194842 147.094762 152.831698 
C 146.731618 152.468554 146.23902 152.264513 145.725456 152.264513 
C 145.211892 152.264513 144.719294 152.468554 144.35615 152.831698 
C 143.993005 153.194842 143.788964 153.687441 143.788964 154.201004 
C 143.788964 154.714568 143.993005 155.207166 144.35615 155.570311 
C 144.719294 155.933455 145.211892 156.137496 145.725456 156.137496 
z
" clip-path="url(#p6740e18bbc)" style="fill: #1f77b4; fill-opacity: 0.8"/>
    <path d="M 164.200007 155.5621 
C 164.713571 155.5621 165.20617 155.358059 165.569314 154.994915 
C 165.932458 154.631771 166.136499 154.139172 166.136499 153.625609 
C 166.136499 153.112045 165.932458 152.619447 165.569314 152.256302 
C 165.20617 151.893158 164.713571 151.689117 164.200007 151.689117 
C 163.686444 151.689117 163.193845 151.893158 162.830701 152.256302 
C 162.467557 152.619447 162.263516 153.112045 162.263516 153.625609 
C 162.263516 154.139172 162.467557 154.631771 162.830701 154.994915 
C 163.193845 155.358059 163.686444 155.5621 164.200007 155.5621 
z
" clip-path="url(#p6740e18bbc)" style="fill: #1f77b4; fill-opacity: 0.8"/>
    <path d="M 182.674559 155.264584 
C 183.188123 155.264584 183.680721 155.060543 184.043865 154.697399 
C 184.40701 154.334254 184.611051 153.841656 184.611051 153.328092 
C 184.611051 152.814529 184.40701 152.32193 184.043865 151.958786 
C 183.680721 151.595642 183.188123 151.391601 182.674559 151.391601 
C 182.160995 151.391601 181.668397 151.595642 181.305253 151.958786 
C 180.942108 152.32193 180.738067 152.814529 180.738067 153.328092 
C 180.738067 153.841656 180.942108 154.334254 181.305253 154.697399 
C 181.668397 155.060543 182.160995 155.264584 182.674559 155.264584 
z
" clip-path="url(#p6740e18bbc)" style="fill: #1f77b4; fill-opacity: 0.8"/>
    <path d="M 201.14911 154.993673 
C 201.662674 154.993673 202.155272 154.789632 202.518417 154.426488 
C 202.881561 154.063343 203.085602 153.570745 203.085602 153.057181 
C 203.085602 152.543618 202.881561 152.051019 202.518417 151.687875 
C 202.155272 151.324731 201.662674 151.12069 201.14911 151.12069 
C 200.635547 151.12069 200.142948 151.324731 199.779804 151.687875 
C 199.41666 152.051019 199.212619 152.543618 199.212619 153.057181 
C 199.212619 153.570745 199.41666 154.063343 199.779804 154.426488 
C 200.142948 154.789632 200.635547 154.993673 201.14911 154.993673 
z
" clip-path="url(#p6740e18bbc)" style="fill: #1f77b4; fill-opacity: 0.8"/>
    <path d="M 219.623662 154.849877 
C 220.137225 154.849877 220.629824 154.645836 220.992968 154.282692 
C 221.356112 153.919547 221.560153 153.426949 221.560153 152.913385 
C 221.560153 152.399822 221.356112 151.907223 220.992968 151.544079 
C 220.629824 151.180935 220.137225 150.976894 219.623662 150.976894 
C 219.110098 150.976894 218.6175 151.180935 218.254355 151.544079 
C 217.891211 151.907223 217.68717 152.399822 217.68717 152.913385 
C 217.68717 153.426949 217.891211 153.919547 218.254355 154.282692 
C 218.6175 154.645836 219.110098 154.849877 219.623662 154.849877 
z
" clip-path="url(#p6740e18bbc)" style="fill: #1f77b4; fill-opacity: 0.8"/>
    <path d="M 238.098213 155.069477 
C 238.611777 155.069477 239.104375 154.865436 239.46752 154.502292 
C 239.830664 154.139148 240.034705 153.646549 240.034705 153.132986 
C 240.034705 152.619422 239.830664 152.126824 239.46752 151.763679 
C 239.104375 151.400535 238.611777 151.196494 238.098213 151.196494 
C 237.58465 151.196494 237.092051 151.400535 236.728907 151.763679 
C 236.365763 152.126824 236.161722 152.619422 236.161722 153.132986 
C 236.161722 153.646549 236.365763 154.139148 236.728907 154.502292 
C 237.092051 154.865436 237.58465 155.069477 238.098213 155.069477 
z
" clip-path="url(#p6740e18bbc)" style="fill: #1f77b4; fill-opacity: 0.8"/>
    <path d="M 256.572765 154.57886 
C 257.086328 154.57886 257.578927 154.374819 257.942071 154.011675 
C 258.305215 153.648531 258.509256 153.155932 258.509256 152.642369 
C 258.509256 152.128805 258.305215 151.636207 257.942071 151.273062 
C 257.578927 150.909918 257.086328 150.705877 256.572765 150.705877 
C 256.059201 150.705877 255.566603 150.909918 255.203458 151.273062 
C 254.840314 151.636207 254.636273 152.128805 254.636273 152.642369 
C 254.636273 153.155932 254.840314 153.648531 255.203458 154.011675 
C 255.566603 154.374819 256.059201 154.57886 256.572765 154.57886 
z
" clip-path="url(#p6740e18bbc)" style="fill: #1f77b4; fill-opacity: 0.8"/>
    <path d="M 275.047316 154.470644 
C 275.56088 154.470644 276.053478 154.266603 276.416622 153.903459 
C 276.779767 153.540314 276.983808 153.047716 276.983808 152.534152 
C 276.983808 152.020589 276.779767 151.52799 276.416622 151.164846 
C 276.053478 150.801701 275.56088 150.597661 275.047316 150.597661 
C 274.533752 150.597661 274.041154 150.801701 273.67801 151.164846 
C 273.314865 151.52799 273.110824 152.020589 273.110824 152.534152 
C 273.110824 153.047716 273.314865 153.540314 273.67801 153.903459 
C 274.041154 154.266603 274.533752 154.470644 275.047316 154.470644 
z
" clip-path="url(#p6740e18bbc)" style="fill: #1f77b4; fill-opacity: 0.8"/>
    <path d="M 293.521868 154.367389 
C 294.035431 154.367389 294.52803 154.163348 294.891174 153.800204 
C 295.254318 153.43706 295.458359 152.944461 295.458359 152.430898 
C 295.458359 151.917334 295.254318 151.424736 294.891174 151.061591 
C 294.52803 150.698447 294.035431 150.494406 293.521868 150.494406 
C 293.008304 150.494406 292.515705 150.698447 292.152561 151.061591 
C 291.789417 151.424736 291.585376 151.917334 291.585376 152.430898 
C 291.585376 152.944461 291.789417 153.43706 292.152561 153.800204 
C 292.515705 154.163348 293.008304 154.367389 293.521868 154.367389 
z
" clip-path="url(#p6740e18bbc)" style="fill: #1f77b4; fill-opacity: 0.8"/>
    <path d="M 311.996419 154.266774 
C 312.509983 154.266774 313.002581 154.062733 313.365725 153.699589 
C 313.72887 153.336445 313.932911 152.843846 313.932911 152.330283 
C 313.932911 151.816719 313.72887 151.324121 313.365725 150.960976 
C 313.002581 150.597832 312.509983 150.393791 311.996419 150.393791 
C 311.482855 150.393791 310.990257 150.597832 310.627113 150.960976 
C 310.263968 151.324121 310.059927 151.816719 310.059927 152.330283 
C 310.059927 152.843846 310.263968 153.336445 310.627113 153.699589 
C 310.990257 154.062733 311.482855 154.266774 311.996419 154.266774 
z
" clip-path="url(#p6740e18bbc)" style="fill: #1f77b4; fill-opacity: 0.8"/>
    <path d="M 330.47097 154.176717 
C 330.984534 154.176717 331.477132 153.972676 331.840277 153.609532 
C 332.203421 153.246387 332.407462 152.753789 332.407462 152.240225 
C 332.407462 151.726662 332.203421 151.234063 331.840277 150.870919 
C 331.477132 150.507775 330.984534 150.303734 330.47097 150.303734 
C 329.957407 150.303734 329.464808 150.507775 329.101664 150.870919 
C 328.73852 151.234063 328.534479 151.726662 328.534479 152.240225 
C 328.534479 152.753789 328.73852 153.246387 329.101664 153.609532 
C 329.464808 153.972676 329.957407 154.176717 330.47097 154.176717 
z
" clip-path="url(#p6740e18bbc)" style="fill: #1f77b4; fill-opacity: 0.8"/>
    <path d="M 348.945522 154.086343 
C 349.459085 154.086343 349.951684 153.882302 350.314828 153.519158 
C 350.677973 153.156013 350.882014 152.663415 350.882014 152.149851 
C 350.882014 151.636288 350.677973 151.143689 350.314828 150.780545 
C 349.951684 150.417401 349.459085 150.21336 348.945522 150.21336 
C 348.431958 150.21336 347.93936 150.417401 347.576215 150.780545 
C 347.213071 151.143689 347.00903 151.636288 347.00903 152.149851 
C 347.00903 152.663415 347.213071 153.156013 347.576215 153.519158 
C 347.93936 153.882302 348.431958 154.086343 348.945522 154.086343 
z
" clip-path="url(#p6740e18bbc)" style="fill: #1f77b4; fill-opacity: 0.8"/>
    <path d="M 367.420073 153.984778 
C 367.933637 153.984778 368.426235 153.780737 368.78938 153.417593 
C 369.152524 153.054448 369.356565 152.56185 369.356565 152.048286 
C 369.356565 151.534723 369.152524 151.042124 368.78938 150.67898 
C 368.426235 150.315835 367.933637 150.111794 367.420073 150.111794 
C 366.90651 150.111794 366.413911 150.315835 366.050767 150.67898 
C 365.687623 151.042124 365.483582 151.534723 365.483582 152.048286 
C 365.483582 152.56185 365.687623 153.054448 366.050767 153.417593 
C 366.413911 153.780737 366.90651 153.984778 367.420073 153.984778 
z
" clip-path="url(#p6740e18bbc)" style="fill: #1f77b4; fill-opacity: 0.8"/>
    <path d="M 385.894625 153.883424 
C 386.408188 153.883424 386.900787 153.679383 387.263931 153.316238 
C 387.627075 152.953094 387.831116 152.460496 387.831116 151.946932 
C 387.831116 151.433368 387.627075 150.94077 387.263931 150.577626 
C 386.900787 150.214481 386.408188 150.01044 385.894625 150.01044 
C 385.381061 150.01044 384.888463 150.214481 384.525318 150.577626 
C 384.162174 150.94077 383.958133 151.433368 383.958133 151.946932 
C 383.958133 152.460496 384.162174 152.953094 384.525318 153.316238 
C 384.888463 153.679383 385.381061 153.883424 385.894625 153.883424 
z
" clip-path="url(#p6740e18bbc)" style="fill: #1f77b4; fill-opacity: 0.8"/>
    <path d="M 404.369176 153.816066 
C 404.88274 153.816066 405.375338 153.612025 405.738483 153.24888 
C 406.101627 152.885736 406.305668 152.393137 406.305668 151.879574 
C 406.305668 151.36601 406.101627 150.873412 405.738483 150.510267 
C 405.375338 150.147123 404.88274 149.943082 404.369176 149.943082 
C 403.855613 149.943082 403.363014 150.147123 402.99987 150.510267 
C 402.636725 150.873412 402.432684 151.36601 402.432684 151.879574 
C 402.432684 152.393137 402.636725 152.885736 402.99987 153.24888 
C 403.363014 153.612025 403.855613 153.816066 404.369176 153.816066 
z
" clip-path="url(#p6740e18bbc)" style="fill: #1f77b4; fill-opacity: 0.8"/>
    <path d="M 70.859004 161.411602 
L 71.82725 160.443356 
L 72.795496 161.411602 
L 73.763742 160.443356 
L 72.795496 159.475111 
L 73.763742 158.506865 
L 72.795496 157.538619 
L 71.82725 158.506865 
L 70.859004 157.538619 
L 69.890759 158.506865 
L 70.859004 159.475111 
L 69.890759 160.443356 
z
" clip-path="url(#p6740e18bbc)" style="fill: #ff7f0e; fill-opacity: 0.8"/>
    <path d="M 107.808107 157.515985 
L 108.776353 156.547739 
L 109.744599 157.515985 
L 110.712845 156.547739 
L 109.744599 155.579493 
L 110.712845 154.611247 
L 109.744599 153.643002 
L 108.776353 154.611247 
L 107.808107 153.643002 
L 106.839861 154.611247 
L 107.808107 155.579493 
L 106.839861 156.547739 
z
" clip-path="url(#p6740e18bbc)" style="fill: #ff7f0e; fill-opacity: 0.8"/>
    <path d="M 144.75721 155.922938 
L 145.725456 154.954692 
L 146.693702 155.922938 
L 147.661948 154.954692 
L 146.693702 153.986446 
L 147.661948 153.0182 
L 146.693702 152.049954 
L 145.725456 153.0182 
L 144.75721 152.049954 
L 143.788964 153.0182 
L 144.75721 153.986446 
L 143.788964 154.954692 
z
" clip-path="url(#p6740e18bbc)" style="fill: #ff7f0e; fill-opacity: 0.8"/>
    <path d="M 181.706313 155.134438 
L 182.674559 154.166193 
L 183.642805 155.134438 
L 184.611051 154.166193 
L 183.642805 153.197947 
L 184.611051 152.229701 
L 183.642805 151.261455 
L 182.674559 152.229701 
L 181.706313 151.261455 
L 180.738067 152.229701 
L 181.706313 153.197947 
L 180.738067 154.166193 
z
" clip-path="url(#p6740e18bbc)" style="fill: #ff7f0e; fill-opacity: 0.8"/>
    <path d="M 218.655416 154.907222 
L 219.623662 153.938976 
L 220.591908 154.907222 
L 221.560153 153.938976 
L 220.591908 152.970731 
L 221.560153 152.002485 
L 220.591908 151.034239 
L 219.623662 152.002485 
L 218.655416 151.034239 
L 217.68717 152.002485 
L 218.655416 152.970731 
L 217.68717 153.938976 
z
" clip-path="url(#p6740e18bbc)" style="fill: #ff7f0e; fill-opacity: 0.8"/>
    <path d="M 255.604519 154.77841 
L 256.572765 153.810164 
L 257.54101 154.77841 
L 258.509256 153.810164 
L 257.54101 152.841918 
L 258.509256 151.873673 
L 257.54101 150.905427 
L 256.572765 151.873673 
L 255.604519 150.905427 
L 254.636273 151.873673 
L 255.604519 152.841918 
L 254.636273 153.810164 
z
" clip-path="url(#p6740e18bbc)" style="fill: #ff7f0e; fill-opacity: 0.8"/>
    <path d="M 292.553622 154.567243 
L 293.521868 153.598997 
L 294.490113 154.567243 
L 295.458359 153.598997 
L 294.490113 152.630751 
L 295.458359 151.662505 
L 294.490113 150.694259 
L 293.521868 151.662505 
L 292.553622 150.694259 
L 291.585376 151.662505 
L 292.553622 152.630751 
L 291.585376 153.598997 
z
" clip-path="url(#p6740e18bbc)" style="fill: #ff7f0e; fill-opacity: 0.8"/>
    <path d="M 329.502725 154.512339 
L 330.47097 153.544093 
L 331.439216 154.512339 
L 332.407462 153.544093 
L 331.439216 152.575847 
L 332.407462 151.607602 
L 331.439216 150.639356 
L 330.47097 151.607602 
L 329.502725 150.639356 
L 328.534479 151.607602 
L 329.502725 152.575847 
L 328.534479 153.544093 
z
" clip-path="url(#p6740e18bbc)" style="fill: #ff7f0e; fill-opacity: 0.8"/>
    <path d="M 366.451827 154.506849 
L 367.420073 153.538603 
L 368.388319 154.506849 
L 369.356565 153.538603 
L 368.388319 152.570357 
L 369.356565 151.602111 
L 368.388319 150.633865 
L 367.420073 151.602111 
L 366.451827 150.633865 
L 365.483582 151.602111 
L 366.451827 152.570357 
L 365.483582 153.538603 
z
" clip-path="url(#p6740e18bbc)" style="fill: #ff7f0e; fill-opacity: 0.8"/>
    <path d="M 403.40093 154.536412 
L 404.369176 153.568166 
L 405.337422 154.536412 
L 406.305668 153.568166 
L 405.337422 152.599921 
L 406.305668 151.631675 
L 405.337422 150.663429 
L 404.369176 151.631675 
L 403.40093 150.663429 
L 402.432684 151.631675 
L 403.40093 152.599921 
L 402.432684 153.568166 
z
" clip-path="url(#p6740e18bbc)" style="fill: #ff7f0e; fill-opacity: 0.8"/>
    <path d="M 70.457944 247.75469 
L 70.457944 250.493303 
L 73.196557 250.493303 
L 73.196557 247.75469 
z
" clip-path="url(#p6740e18bbc)" style="fill: #2ca02c; fill-opacity: 0.8"/>
    <path d="M 107.407047 188.397022 
L 107.407047 191.135635 
L 110.14566 191.135635 
L 110.14566 188.397022 
z
" clip-path="url(#p6740e18bbc)" style="fill: #2ca02c; fill-opacity: 0.8"/>
    <path d="M 144.35615 178.255756 
L 144.35615 180.994369 
L 147.094762 180.994369 
L 147.094762 178.255756 
z
" clip-path="url(#p6740e18bbc)" style="fill: #2ca02c; fill-opacity: 0.8"/>
    <path d="M 181.305253 172.32265 
L 181.305253 175.061263 
L 184.043865 175.061263 
L 184.043865 172.32265 
z
" clip-path="url(#p6740e18bbc)" style="fill: #2ca02c; fill-opacity: 0.8"/>
    <path d="M 218.254355 174.526502 
L 218.254355 177.265115 
L 220.992968 177.265115 
L 220.992968 174.526502 
z
" clip-path="url(#p6740e18bbc)" style="fill: #2ca02c; fill-opacity: 0.8"/>
    <path d="M 255.203458 168.544618 
L 255.203458 171.283231 
L 257.942071 171.283231 
L 257.942071 168.544618 
z
" clip-path="url(#p6740e18bbc)" style="fill: #2ca02c; fill-opacity: 0.8"/>
    <path d="M 292.152561 164.952827 
L 292.152561 167.69144 
L 294.891174 167.69144 
L 294.891174 164.952827 
z
" clip-path="url(#p6740e18bbc)" style="fill: #2ca02c; fill-opacity: 0.8"/>
    <path d="M 329.101664 165.303138 
L 329.101664 168.041751 
L 331.840277 168.041751 
L 331.840277 165.303138 
z
" clip-path="url(#p6740e18bbc)" style="fill: #2ca02c; fill-opacity: 0.8"/>
    <path d="M 366.050767 166.730986 
L 366.050767 169.469598 
L 368.78938 169.469598 
L 368.78938 166.730986 
z
" clip-path="url(#p6740e18bbc)" style="fill: #2ca02c; fill-opacity: 0.8"/>
    <path d="M 402.99987 167.524727 
L 402.99987 170.26334 
L 405.738483 170.26334 
L 405.738483 167.524727 
z
" clip-path="url(#p6740e18bbc)" style="fill: #2ca02c; fill-opacity: 0.8"/>
    <path d="M 71.181753 253.807543 
L 72.472748 253.807543 
L 72.472748 252.516548 
L 73.763742 252.516548 
L 73.763742 251.225554 
L 72.472748 251.225554 
L 72.472748 249.934559 
L 71.181753 249.934559 
L 71.181753 251.225554 
L 69.890759 251.225554 
L 69.890759 252.516548 
L 71.181753 252.516548 
z
" clip-path="url(#p6740e18bbc)" style="fill: #d62728; fill-opacity: 0.8"/>
    <path d="M 108.130856 232.979591 
L 109.42185 232.979591 
L 109.42185 231.688596 
L 110.712845 231.688596 
L 110.712845 230.397602 
L 109.42185 230.397602 
L 109.42185 229.106607 
L 108.130856 229.106607 
L 108.130856 230.397602 
L 106.839861 230.397602 
L 106.839861 231.688596 
L 108.130856 231.688596 
z
" clip-path="url(#p6740e18bbc)" style="fill: #d62728; fill-opacity: 0.8"/>
    <path d="M 145.079959 220.641124 
L 146.370953 220.641124 
L 146.370953 219.35013 
L 147.661948 219.35013 
L 147.661948 218.059135 
L 146.370953 218.059135 
L 146.370953 216.768141 
L 145.079959 216.768141 
L 145.079959 218.059135 
L 143.788964 218.059135 
L 143.788964 219.35013 
L 145.079959 219.35013 
z
" clip-path="url(#p6740e18bbc)" style="fill: #d62728; fill-opacity: 0.8"/>
    <path d="M 182.029062 202.37842 
L 183.320056 202.37842 
L 183.320056 201.087426 
L 184.611051 201.087426 
L 184.611051 199.796432 
L 183.320056 199.796432 
L 183.320056 198.505437 
L 182.029062 198.505437 
L 182.029062 199.796432 
L 180.738067 199.796432 
L 180.738067 201.087426 
L 182.029062 201.087426 
z
" clip-path="url(#p6740e18bbc)" style="fill: #d62728; fill-opacity: 0.8"/>
    <path d="M 218.978165 216.876396 
L 220.269159 216.876396 
L 220.269159 215.585401 
L 221.560153 215.585401 
L 221.560153 214.294407 
L 220.269159 214.294407 
L 220.269159 213.003412 
L 218.978165 213.003412 
L 218.978165 214.294407 
L 217.68717 214.294407 
L 217.68717 215.585401 
L 218.978165 215.585401 
z
" clip-path="url(#p6740e18bbc)" style="fill: #d62728; fill-opacity: 0.8"/>
    <path d="M 255.927267 196.008535 
L 257.218262 196.008535 
L 257.218262 194.71754 
L 258.509256 194.71754 
L 258.509256 193.426546 
L 257.218262 193.426546 
L 257.218262 192.135551 
L 255.927267 192.135551 
L 255.927267 193.426546 
L 254.636273 193.426546 
L 254.636273 194.71754 
L 255.927267 194.71754 
z
" clip-path="url(#p6740e18bbc)" style="fill: #d62728; fill-opacity: 0.8"/>
    <path d="M 292.87637 200.68008 
L 294.167365 200.68008 
L 294.167365 199.389085 
L 295.458359 199.389085 
L 295.458359 198.098091 
L 294.167365 198.098091 
L 294.167365 196.807097 
L 292.87637 196.807097 
L 292.87637 198.098091 
L 291.585376 198.098091 
L 291.585376 199.389085 
L 292.87637 199.389085 
z
" clip-path="url(#p6740e18bbc)" style="fill: #d62728; fill-opacity: 0.8"/>
    <path d="M 329.825473 188.46134 
L 331.116468 188.46134 
L 331.116468 187.170345 
L 332.407462 187.170345 
L 332.407462 185.879351 
L 331.116468 185.879351 
L 331.116468 184.588357 
L 329.825473 184.588357 
L 329.825473 185.879351 
L 328.534479 185.879351 
L 328.534479 187.170345 
L 329.825473 187.170345 
z
" clip-path="url(#p6740e18bbc)" style="fill: #d62728; fill-opacity: 0.8"/>
    <path d="M 366.774576 192.075302 
L 368.06557 192.075302 
L 368.06557 190.784308 
L 369.356565 190.784308 
L 369.356565 189.493313 
L 368.06557 189.493313 
L 368.06557 188.202319 
L 366.774576 188.202319 
L 366.774576 189.493313 
L 365.483582 189.493313 
L 365.483582 190.784308 
L 366.774576 190.784308 
z
" clip-path="url(#p6740e18bbc)" style="fill: #d62728; fill-opacity: 0.8"/>
    <path d="M 403.723679 193.749254 
L 405.014673 193.749254 
L 405.014673 192.45826 
L 406.305668 192.45826 
L 406.305668 191.167265 
L 405.014673 191.167265 
L 405.014673 189.876271 
L 403.723679 189.876271 
L 403.723679 191.167265 
L 402.432684 191.167265 
L 402.432684 192.45826 
L 403.723679 192.45826 
z
" clip-path="url(#p6740e18bbc)" style="fill: #d62728; fill-opacity: 0.8"/>
   </g>
   <g id="FillBetweenPolyCollection_5"/>
   <g id="FillBetweenPolyCollection_6"/>
   <g id="FillBetweenPolyCollection_7"/>
   <g id="FillBetweenPolyCollection_8"/>
   <g id="matplotlib.axis_3">
    <g id="xtick_9">
     <g id="line2d_41">
      <g>
       <use xlink:href="#m0d77b42cb9" x="81.064526" y="256.870625" style="stroke: #000000; stroke-width: 0.8"/>
      </g>
     </g>
     <g id="line2d_42">
      <g>
       <use xlink:href="#md6b64334d4" x="81.064526" y="146.88" style="stroke: #000000; stroke-width: 0.8"/>
      </g>
     </g>
     <g id="text_21">
      <!-- 2.5 -->
      <g transform="translate(76.293589 264.929688) scale(0.06 -0.06)">
       <use xlink:href="#DejaVuSans-32"/>
       <use xlink:href="#DejaVuSans-2e" transform="translate(63.623047 0)"/>
       <use xlink:href="#DejaVuSans-35" transform="translate(95.410156 0)"/>
      </g>
     </g>
    </g>
    <g id="xtick_10">
     <g id="line2d_43">
      <g>
       <use xlink:href="#m0d77b42cb9" x="127.250905" y="256.870625" style="stroke: #000000; stroke-width: 0.8"/>
      </g>
     </g>
     <g id="line2d_44">
      <g>
       <use xlink:href="#md6b64334d4" x="127.250905" y="146.88" style="stroke: #000000; stroke-width: 0.8"/>
      </g>
     </g>
     <g id="text_22">
      <!-- 5.0 -->
      <g transform="translate(122.479967 264.929688) scale(0.06 -0.06)">
       <use xlink:href="#DejaVuSans-35"/>
       <use xlink:href="#DejaVuSans-2e" transform="translate(63.623047 0)"/>
       <use xlink:href="#DejaVuSans-30" transform="translate(95.410156 0)"/>
      </g>
     </g>
    </g>
    <g id="xtick_11">
     <g id="line2d_45">
      <g>
       <use xlink:href="#m0d77b42cb9" x="173.437283" y="256.870625" style="stroke: #000000; stroke-width: 0.8"/>
      </g>
     </g>
     <g id="line2d_46">
      <g>
       <use xlink:href="#md6b64334d4" x="173.437283" y="146.88" style="stroke: #000000; stroke-width: 0.8"/>
      </g>
     </g>
     <g id="text_23">
      <!-- 7.5 -->
      <g transform="translate(168.666346 264.929688) scale(0.06 -0.06)">
       <use xlink:href="#DejaVuSans-37"/>
       <use xlink:href="#DejaVuSans-2e" transform="translate(63.623047 0)"/>
       <use xlink:href="#DejaVuSans-35" transform="translate(95.410156 0)"/>
      </g>
     </g>
    </g>
    <g id="xtick_12">
     <g id="line2d_47">
      <g>
       <use xlink:href="#m0d77b42cb9" x="219.623662" y="256.870625" style="stroke: #000000; stroke-width: 0.8"/>
      </g>
     </g>
     <g id="line2d_48">
      <g>
       <use xlink:href="#md6b64334d4" x="219.623662" y="146.88" style="stroke: #000000; stroke-width: 0.8"/>
      </g>
     </g>
     <g id="text_24">
      <!-- 10.0 -->
      <g transform="translate(212.943974 264.929688) scale(0.06 -0.06)">
       <use xlink:href="#DejaVuSans-31"/>
       <use xlink:href="#DejaVuSans-30" transform="translate(63.623047 0)"/>
       <use xlink:href="#DejaVuSans-2e" transform="translate(127.246094 0)"/>
       <use xlink:href="#DejaVuSans-30" transform="translate(159.033203 0)"/>
      </g>
     </g>
    </g>
    <g id="xtick_13">
     <g id="line2d_49">
      <g>
       <use xlink:href="#m0d77b42cb9" x="265.81004" y="256.870625" style="stroke: #000000; stroke-width: 0.8"/>
      </g>
     </g>
     <g id="line2d_50">
      <g>
       <use xlink:href="#md6b64334d4" x="265.81004" y="146.88" style="stroke: #000000; stroke-width: 0.8"/>
      </g>
     </g>
     <g id="text_25">
      <!-- 12.5 -->
      <g transform="translate(259.130353 264.929688) scale(0.06 -0.06)">
       <use xlink:href="#DejaVuSans-31"/>
       <use xlink:href="#DejaVuSans-32" transform="translate(63.623047 0)"/>
       <use xlink:href="#DejaVuSans-2e" transform="translate(127.246094 0)"/>
       <use xlink:href="#DejaVuSans-35" transform="translate(159.033203 0)"/>
      </g>
     </g>
    </g>
    <g id="xtick_14">
     <g id="line2d_51">
      <g>
       <use xlink:href="#m0d77b42cb9" x="311.996419" y="256.870625" style="stroke: #000000; stroke-width: 0.8"/>
      </g>
     </g>
     <g id="line2d_52">
      <g>
       <use xlink:href="#md6b64334d4" x="311.996419" y="146.88" style="stroke: #000000; stroke-width: 0.8"/>
      </g>
     </g>
     <g id="text_26">
      <!-- 15.0 -->
      <g transform="translate(305.316731 264.929688) scale(0.06 -0.06)">
       <use xlink:href="#DejaVuSans-31"/>
       <use xlink:href="#DejaVuSans-35" transform="translate(63.623047 0)"/>
       <use xlink:href="#DejaVuSans-2e" transform="translate(127.246094 0)"/>
       <use xlink:href="#DejaVuSans-30" transform="translate(159.033203 0)"/>
      </g>
     </g>
    </g>
    <g id="xtick_15">
     <g id="line2d_53">
      <g>
       <use xlink:href="#m0d77b42cb9" x="358.182798" y="256.870625" style="stroke: #000000; stroke-width: 0.8"/>
      </g>
     </g>
     <g id="line2d_54">
      <g>
       <use xlink:href="#md6b64334d4" x="358.182798" y="146.88" style="stroke: #000000; stroke-width: 0.8"/>
      </g>
     </g>
     <g id="text_27">
      <!-- 17.5 -->
      <g transform="translate(351.50311 264.929688) scale(0.06 -0.06)">
       <use xlink:href="#DejaVuSans-31"/>
       <use xlink:href="#DejaVuSans-37" transform="translate(63.623047 0)"/>
       <use xlink:href="#DejaVuSans-2e" transform="translate(127.246094 0)"/>
       <use xlink:href="#DejaVuSans-35" transform="translate(159.033203 0)"/>
      </g>
     </g>
    </g>
    <g id="xtick_16">
     <g id="line2d_55">
      <g>
       <use xlink:href="#m0d77b42cb9" x="404.369176" y="256.870625" style="stroke: #000000; stroke-width: 0.8"/>
      </g>
     </g>
     <g id="line2d_56">
      <g>
       <use xlink:href="#md6b64334d4" x="404.369176" y="146.88" style="stroke: #000000; stroke-width: 0.8"/>
      </g>
     </g>
     <g id="text_28">
      <!-- 20.0 -->
      <g transform="translate(397.689489 264.929688) scale(0.06 -0.06)">
       <use xlink:href="#DejaVuSans-32"/>
       <use xlink:href="#DejaVuSans-30" transform="translate(63.623047 0)"/>
       <use xlink:href="#DejaVuSans-2e" transform="translate(127.246094 0)"/>
       <use xlink:href="#DejaVuSans-30" transform="translate(159.033203 0)"/>
      </g>
     </g>
    </g>
    <g id="text_29">
     <!-- epoch -->
     <g transform="translate(216.678438 276.25625) scale(0.08 -0.08)">
      <use xlink:href="#DejaVuSans-65"/>
      <use xlink:href="#DejaVuSans-70" transform="translate(61.523438 0)"/>
      <use xlink:href="#DejaVuSans-6f" transform="translate(125 0)"/>
      <use xlink:href="#DejaVuSans-63" transform="translate(186.181641 0)"/>
      <use xlink:href="#DejaVuSans-68" transform="translate(241.162109 0)"/>
     </g>
    </g>
   </g>
   <g id="matplotlib.axis_4">
    <g id="ytick_7">
     <g id="line2d_57">
      <g>
       <use xlink:href="#mf236ecf876" x="35.801875" y="241.465944" style="stroke: #000000; stroke-width: 0.8"/>
      </g>
     </g>
     <g id="line2d_58">
      <g>
       <use xlink:href="#mc7a82f136c" x="421.92" y="241.465944" style="stroke: #000000; stroke-width: 0.8"/>
      </g>
     </g>
     <g id="text_30">
      <!-- 0.80 -->
      <g transform="translate(18.9425 243.745475) scale(0.06 -0.06)">
       <use xlink:href="#DejaVuSans-30"/>
       <use xlink:href="#DejaVuSans-2e" transform="translate(63.623047 0)"/>
       <use xlink:href="#DejaVuSans-38" transform="translate(95.410156 0)"/>
       <use xlink:href="#DejaVuSans-30" transform="translate(159.033203 0)"/>
      </g>
     </g>
    </g>
    <g id="ytick_8">
     <g id="line2d_59">
      <g>
       <use xlink:href="#mf236ecf876" x="35.801875" y="218.850965" style="stroke: #000000; stroke-width: 0.8"/>
      </g>
     </g>
     <g id="line2d_60">
      <g>
       <use xlink:href="#mc7a82f136c" x="421.92" y="218.850965" style="stroke: #000000; stroke-width: 0.8"/>
      </g>
     </g>
     <g id="text_31">
      <!-- 0.85 -->
      <g transform="translate(18.9425 221.130496) scale(0.06 -0.06)">
       <use xlink:href="#DejaVuSans-30"/>
       <use xlink:href="#DejaVuSans-2e" transform="translate(63.623047 0)"/>
       <use xlink:href="#DejaVuSans-38" transform="translate(95.410156 0)"/>
       <use xlink:href="#DejaVuSans-35" transform="translate(159.033203 0)"/>
      </g>
     </g>
    </g>
    <g id="ytick_9">
     <g id="line2d_61">
      <g>
       <use xlink:href="#mf236ecf876" x="35.801875" y="196.235986" style="stroke: #000000; stroke-width: 0.8"/>
      </g>
     </g>
     <g id="line2d_62">
      <g>
       <use xlink:href="#mc7a82f136c" x="421.92" y="196.235986" style="stroke: #000000; stroke-width: 0.8"/>
      </g>
     </g>
     <g id="text_32">
      <!-- 0.90 -->
      <g transform="translate(18.9425 198.515517) scale(0.06 -0.06)">
       <defs>
        <path id="DejaVuSans-39" d="M 703 97 
L 703 672 
Q 941 559 1184 500 
Q 1428 441 1663 441 
Q 2288 441 2617 861 
Q 2947 1281 2994 2138 
Q 2813 1869 2534 1725 
Q 2256 1581 1919 1581 
Q 1219 1581 811 2004 
Q 403 2428 403 3163 
Q 403 3881 828 4315 
Q 1253 4750 1959 4750 
Q 2769 4750 3195 4129 
Q 3622 3509 3622 2328 
Q 3622 1225 3098 567 
Q 2575 -91 1691 -91 
Q 1453 -91 1209 -44 
Q 966 3 703 97 
z
M 1959 2075 
Q 2384 2075 2632 2365 
Q 2881 2656 2881 3163 
Q 2881 3666 2632 3958 
Q 2384 4250 1959 4250 
Q 1534 4250 1286 3958 
Q 1038 3666 1038 3163 
Q 1038 2656 1286 2365 
Q 1534 2075 1959 2075 
z
" transform="scale(0.015625)"/>
       </defs>
       <use xlink:href="#DejaVuSans-30"/>
       <use xlink:href="#DejaVuSans-2e" transform="translate(63.623047 0)"/>
       <use xlink:href="#DejaVuSans-39" transform="translate(95.410156 0)"/>
       <use xlink:href="#DejaVuSans-30" transform="translate(159.033203 0)"/>
      </g>
     </g>
    </g>
    <g id="ytick_10">
     <g id="line2d_63">
      <g>
       <use xlink:href="#mf236ecf876" x="35.801875" y="173.621007" style="stroke: #000000; stroke-width: 0.8"/>
      </g>
     </g>
     <g id="line2d_64">
      <g>
       <use xlink:href="#mc7a82f136c" x="421.92" y="173.621007" style="stroke: #000000; stroke-width: 0.8"/>
      </g>
     </g>
     <g id="text_33">
      <!-- 0.95 -->
      <g transform="translate(18.9425 175.900539) scale(0.06 -0.06)">
       <use xlink:href="#DejaVuSans-30"/>
       <use xlink:href="#DejaVuSans-2e" transform="translate(63.623047 0)"/>
       <use xlink:href="#DejaVuSans-39" transform="translate(95.410156 0)"/>
       <use xlink:href="#DejaVuSans-35" transform="translate(159.033203 0)"/>
      </g>
     </g>
    </g>
    <g id="ytick_11">
     <g id="line2d_65">
      <g>
       <use xlink:href="#mf236ecf876" x="35.801875" y="151.006029" style="stroke: #000000; stroke-width: 0.8"/>
      </g>
     </g>
     <g id="line2d_66">
      <g>
       <use xlink:href="#mc7a82f136c" x="421.92" y="151.006029" style="stroke: #000000; stroke-width: 0.8"/>
      </g>
     </g>
     <g id="text_34">
      <!-- 1.00 -->
      <g transform="translate(18.9425 153.28556) scale(0.06 -0.06)">
       <use xlink:href="#DejaVuSans-31"/>
       <use xlink:href="#DejaVuSans-2e" transform="translate(63.623047 0)"/>
       <use xlink:href="#DejaVuSans-30" transform="translate(95.410156 0)"/>
       <use xlink:href="#DejaVuSans-30" transform="translate(159.033203 0)"/>
      </g>
     </g>
    </g>
    <g id="text_35">
     <!-- Accuracy -->
     <g transform="translate(13.27875 220.137812) rotate(-90) scale(0.08 -0.08)">
      <defs>
       <path id="DejaVuSans-41" d="M 2188 4044 
L 1331 1722 
L 3047 1722 
L 2188 4044 
z
M 1831 4666 
L 2547 4666 
L 4325 0 
L 3669 0 
L 3244 1197 
L 1141 1197 
L 716 0 
L 50 0 
L 1831 4666 
z
" transform="scale(0.015625)"/>
       <path id="DejaVuSans-75" d="M 544 1381 
L 544 3500 
L 1119 3500 
L 1119 1403 
Q 1119 906 1312 657 
Q 1506 409 1894 409 
Q 2359 409 2629 706 
Q 2900 1003 2900 1516 
L 2900 3500 
L 3475 3500 
L 3475 0 
L 2900 0 
L 2900 538 
Q 2691 219 2414 64 
Q 2138 -91 1772 -91 
Q 1169 -91 856 284 
Q 544 659 544 1381 
z
M 1991 3584 
L 1991 3584 
z
" transform="scale(0.015625)"/>
       <path id="DejaVuSans-79" d="M 2059 -325 
Q 1816 -950 1584 -1140 
Q 1353 -1331 966 -1331 
L 506 -1331 
L 506 -850 
L 844 -850 
Q 1081 -850 1212 -737 
Q 1344 -625 1503 -206 
L 1606 56 
L 191 3500 
L 800 3500 
L 1894 763 
L 2988 3500 
L 3597 3500 
L 2059 -325 
z
" transform="scale(0.015625)"/>
      </defs>
      <use xlink:href="#DejaVuSans-41"/>
      <use xlink:href="#DejaVuSans-63" transform="translate(66.658203 0)"/>
      <use xlink:href="#DejaVuSans-63" transform="translate(121.638672 0)"/>
      <use xlink:href="#DejaVuSans-75" transform="translate(176.619141 0)"/>
      <use xlink:href="#DejaVuSans-72" transform="translate(239.998047 0)"/>
      <use xlink:href="#DejaVuSans-61" transform="translate(281.111328 0)"/>
      <use xlink:href="#DejaVuSans-63" transform="translate(342.390625 0)"/>
      <use xlink:href="#DejaVuSans-79" transform="translate(397.371094 0)"/>
     </g>
    </g>
   </g>
   <g id="line2d_67">
    <path d="M 53.352699 226.190155 
L 71.82725 164.74605 
L 90.301802 158.910695 
L 108.776353 156.620199 
L 127.250905 155.187306 
L 145.725456 154.201004 
L 164.200007 153.625609 
L 182.674559 153.328092 
L 201.14911 153.057181 
L 219.623662 152.913385 
L 238.098213 153.132986 
L 256.572765 152.642369 
L 275.047316 152.534152 
L 293.521868 152.430898 
L 311.996419 152.330283 
L 330.47097 152.240225 
L 348.945522 152.149851 
L 367.420073 152.048286 
L 385.894625 151.946932 
L 404.369176 151.879574 
" clip-path="url(#p6740e18bbc)" style="fill: none; stroke: #1f77b4; stroke-opacity: 0.8; stroke-linecap: square"/>
   </g>
   <g id="line2d_68">
    <path d="M 71.82725 159.475111 
L 108.776353 155.579493 
L 145.725456 153.986446 
L 182.674559 153.197947 
L 219.623662 152.970731 
L 256.572765 152.841918 
L 293.521868 152.630751 
L 330.47097 152.575847 
L 367.420073 152.570357 
L 404.369176 152.599921 
" clip-path="url(#p6740e18bbc)" style="fill: none; stroke-dasharray: 4,1.5; stroke-dashoffset: 0; stroke: #ff7f0e; stroke-opacity: 0.8"/>
   </g>
   <g id="line2d_69">
    <path d="M 71.82725 249.123996 
L 108.776353 189.766328 
L 145.725456 179.625062 
L 182.674559 173.691956 
L 219.623662 175.895808 
L 256.572765 169.913925 
L 293.521868 166.322134 
L 330.47097 166.672444 
L 367.420073 168.100292 
L 404.369176 168.894033 
" clip-path="url(#p6740e18bbc)" style="fill: none; stroke-dasharray: 1,1; stroke-dashoffset: 0; stroke: #2ca02c; stroke-opacity: 0.8"/>
   </g>
   <g id="line2d_70">
    <path d="M 71.82725 251.871051 
L 108.776353 231.043099 
L 145.725456 218.704633 
L 182.674559 200.441929 
L 219.623662 214.939904 
L 256.572765 194.072043 
L 293.521868 198.743588 
L 330.47097 186.524848 
L 367.420073 190.13881 
L 404.369176 191.812762 
" clip-path="url(#p6740e18bbc)" style="fill: none; stroke-dasharray: 3,1.25,1.5,1.25; stroke-dashoffset: 0; stroke: #d62728; stroke-opacity: 0.8"/>
   </g>
   <g id="line2d_71"/>
   <g id="line2d_72"/>
   <g id="line2d_73"/>
   <g id="line2d_74"/>
   <g id="patch_8">
    <path d="M 35.801875 256.870625 
L 35.801875 146.88 
" style="fill: none; stroke: #000000; stroke-width: 0.5; stroke-linejoin: miter; stroke-linecap: square"/>
   </g>
   <g id="patch_9">
    <path d="M 421.92 256.870625 
L 421.92 146.88 
" style="fill: none; stroke: #000000; stroke-width: 0.5; stroke-linejoin: miter; stroke-linecap: square"/>
   </g>
   <g id="patch_10">
    <path d="M 35.801875 256.870625 
L 421.92 256.870625 
" style="fill: none; stroke: #000000; stroke-width: 0.5; stroke-linejoin: miter; stroke-linecap: square"/>
   </g>
   <g id="patch_11">
    <path d="M 35.801875 146.88 
L 421.92 146.88 
" style="fill: none; stroke: #000000; stroke-width: 0.5; stroke-linejoin: miter; stroke-linecap: square"/>
   </g>
   <g id="legend_2">
    <g id="line2d_75">
     <path d="M 350.586406 227.007344 
L 355.586406 227.007344 
L 360.586406 227.007344 
" style="fill: none; stroke: #1f77b4; stroke-opacity: 0.8; stroke-linecap: square"/>
    </g>
    <g id="text_36">
     <!-- train_accuracy -->
     <g transform="translate(364.586406 228.757344) scale(0.05 -0.05)">
      <use xlink:href="#DejaVuSans-74"/>
      <use xlink:href="#DejaVuSans-72" transform="translate(39.208984 0)"/>
      <use xlink:href="#DejaVuSans-61" transform="translate(80.322266 0)"/>
      <use xlink:href="#DejaVuSans-69" transform="translate(141.601562 0)"/>
      <use xlink:href="#DejaVuSans-6e" transform="translate(169.384766 0)"/>
      <use xlink:href="#DejaVuSans-5f" transform="translate(232.763672 0)"/>
      <use xlink:href="#DejaVuSans-61" transform="translate(282.763672 0)"/>
      <use xlink:href="#DejaVuSans-63" transform="translate(344.042969 0)"/>
      <use xlink:href="#DejaVuSans-63" transform="translate(399.023438 0)"/>
      <use xlink:href="#DejaVuSans-75" transform="translate(454.003906 0)"/>
      <use xlink:href="#DejaVuSans-72" transform="translate(517.382812 0)"/>
      <use xlink:href="#DejaVuSans-61" transform="translate(558.496094 0)"/>
      <use xlink:href="#DejaVuSans-63" transform="translate(619.775391 0)"/>
      <use xlink:href="#DejaVuSans-79" transform="translate(674.755859 0)"/>
     </g>
    </g>
    <g id="line2d_76">
     <path d="M 350.586406 234.485469 
L 355.586406 234.485469 
L 360.586406 234.485469 
" style="fill: none; stroke-dasharray: 4,1.5; stroke-dashoffset: 0; stroke: #ff7f0e; stroke-opacity: 0.8"/>
    </g>
    <g id="text_37">
     <!-- valid_accuracy -->
     <g transform="translate(364.586406 236.235469) scale(0.05 -0.05)">
      <use xlink:href="#DejaVuSans-76"/>
      <use xlink:href="#DejaVuSans-61" transform="translate(59.179688 0)"/>
      <use xlink:href="#DejaVuSans-6c" transform="translate(120.458984 0)"/>
      <use xlink:href="#DejaVuSans-69" transform="translate(148.242188 0)"/>
      <use xlink:href="#DejaVuSans-64" transform="translate(176.025391 0)"/>
      <use xlink:href="#DejaVuSans-5f" transform="translate(239.501953 0)"/>
      <use xlink:href="#DejaVuSans-61" transform="translate(289.501953 0)"/>
      <use xlink:href="#DejaVuSans-63" transform="translate(350.78125 0)"/>
      <use xlink:href="#DejaVuSans-63" transform="translate(405.761719 0)"/>
      <use xlink:href="#DejaVuSans-75" transform="translate(460.742188 0)"/>
      <use xlink:href="#DejaVuSans-72" transform="translate(524.121094 0)"/>
      <use xlink:href="#DejaVuSans-61" transform="translate(565.234375 0)"/>
      <use xlink:href="#DejaVuSans-63" transform="translate(626.513672 0)"/>
      <use xlink:href="#DejaVuSans-79" transform="translate(681.494141 0)"/>
     </g>
    </g>
    <g id="line2d_77">
     <path d="M 350.586406 241.963594 
L 355.586406 241.963594 
L 360.586406 241.963594 
" style="fill: none; stroke-dasharray: 1,1; stroke-dashoffset: 0; stroke: #2ca02c; stroke-opacity: 0.8"/>
    </g>
    <g id="text_38">
     <!-- valid_noise_accuracy -->
     <g transform="translate(364.586406 243.713594) scale(0.05 -0.05)">
      <use xlink:href="#DejaVuSans-76"/>
      <use xlink:href="#DejaVuSans-61" transform="translate(59.179688 0)"/>
      <use xlink:href="#DejaVuSans-6c" transform="translate(120.458984 0)"/>
      <use xlink:href="#DejaVuSans-69" transform="translate(148.242188 0)"/>
      <use xlink:href="#DejaVuSans-64" transform="translate(176.025391 0)"/>
      <use xlink:href="#DejaVuSans-5f" transform="translate(239.501953 0)"/>
      <use xlink:href="#DejaVuSans-6e" transform="translate(289.501953 0)"/>
      <use xlink:href="#DejaVuSans-6f" transform="translate(352.880859 0)"/>
      <use xlink:href="#DejaVuSans-69" transform="translate(414.0625 0)"/>
      <use xlink:href="#DejaVuSans-73" transform="translate(441.845703 0)"/>
      <use xlink:href="#DejaVuSans-65" transform="translate(493.945312 0)"/>
      <use xlink:href="#DejaVuSans-5f" transform="translate(555.46875 0)"/>
      <use xlink:href="#DejaVuSans-61" transform="translate(605.46875 0)"/>
      <use xlink:href="#DejaVuSans-63" transform="translate(666.748047 0)"/>
      <use xlink:href="#DejaVuSans-63" transform="translate(721.728516 0)"/>
      <use xlink:href="#DejaVuSans-75" transform="translate(776.708984 0)"/>
      <use xlink:href="#DejaVuSans-72" transform="translate(840.087891 0)"/>
      <use xlink:href="#DejaVuSans-61" transform="translate(881.201172 0)"/>
      <use xlink:href="#DejaVuSans-63" transform="translate(942.480469 0)"/>
      <use xlink:href="#DejaVuSans-79" transform="translate(997.460938 0)"/>
     </g>
    </g>
    <g id="line2d_78">
     <path d="M 350.586406 249.441719 
L 355.586406 249.441719 
L 360.586406 249.441719 
" style="fill: none; stroke-dasharray: 3,1.25,1.5,1.25; stroke-dashoffset: 0; stroke: #d62728; stroke-opacity: 0.8"/>
    </g>
    <g id="text_39">
     <!-- valid_atom_accuracy -->
     <g transform="translate(364.586406 251.191719) scale(0.05 -0.05)">
      <use xlink:href="#DejaVuSans-76"/>
      <use xlink:href="#DejaVuSans-61" transform="translate(59.179688 0)"/>
      <use xlink:href="#DejaVuSans-6c" transform="translate(120.458984 0)"/>
      <use xlink:href="#DejaVuSans-69" transform="translate(148.242188 0)"/>
      <use xlink:href="#DejaVuSans-64" transform="translate(176.025391 0)"/>
      <use xlink:href="#DejaVuSans-5f" transform="translate(239.501953 0)"/>
      <use xlink:href="#DejaVuSans-61" transform="translate(289.501953 0)"/>
      <use xlink:href="#DejaVuSans-74" transform="translate(350.78125 0)"/>
      <use xlink:href="#DejaVuSans-6f" transform="translate(389.990234 0)"/>
      <use xlink:href="#DejaVuSans-6d" transform="translate(451.171875 0)"/>
      <use xlink:href="#DejaVuSans-5f" transform="translate(548.583984 0)"/>
      <use xlink:href="#DejaVuSans-61" transform="translate(598.583984 0)"/>
      <use xlink:href="#DejaVuSans-63" transform="translate(659.863281 0)"/>
      <use xlink:href="#DejaVuSans-63" transform="translate(714.84375 0)"/>
      <use xlink:href="#DejaVuSans-75" transform="translate(769.824219 0)"/>
      <use xlink:href="#DejaVuSans-72" transform="translate(833.203125 0)"/>
      <use xlink:href="#DejaVuSans-61" transform="translate(874.316406 0)"/>
      <use xlink:href="#DejaVuSans-63" transform="translate(935.595703 0)"/>
      <use xlink:href="#DejaVuSans-79" transform="translate(990.576172 0)"/>
     </g>
    </g>
   </g>
  </g>
 </g>
 <defs>
  <clipPath id="p907b2bcc63">
   <rect x="35.801875" y="7.2" width="386.118125" height="109.990625"/>
  </clipPath>
  <clipPath id="p6740e18bbc">
   <rect x="35.801875" y="146.88" width="386.118125" height="109.990625"/>
  </clipPath>
 </defs>
</svg>
